{"glyphs":{"0":{"ha":981,"x_min":0,"x_max":0,"o":"m 486 -6 b 894 497 706 -6 894 182 b 493 990 894 807 707 990 b 86 490 275 990 86 807 b 486 -6 86 250 222 -6 z m 485 222 b 306 501 367 222 306 349 b 492 765 306 651 381 765 b 675 494 607 765 675 647 b 485 222 675 336 603 222 z "},"1":{"ha":606,"x_min":0,"x_max":0,"o":"m 272 85 l 272 79 b 290 35 272 58 281 43 b 388 0 311 10 357 0 b 488 51 426 0 471 13 b 500 160 496 72 499 119 b 501 269 501 203 501 249 b 489 713 501 418 496 565 b 483 810 488 744 486 776 b 340 978 472 892 438 978 b 293 968 324 978 308 974 b 171 903 272 961 221 933 b 103 856 147 886 122 869 b 63 808 85 840 67 824 b 58 783 60 800 58 790 b 174 638 58 718 129 638 b 203 649 182 638 193 643 b 235 669 213 654 224 663 b 269 699 247 679 260 689 b 285 321 276 574 285 447 b 272 85 285 240 281 164 z "},"2":{"ha":865,"x_min":0,"x_max":0,"o":"m 469 221 b 751 690 599 332 751 514 b 464 993 751 863 638 993 b 89 782 322 993 163 899 b 74 731 81 768 74 753 b 201 610 74 649 161 610 b 267 647 226 610 250 619 b 467 767 317 721 393 767 b 532 692 510 767 532 744 b 358 424 532 597 425 490 b 238 304 322 386 279 346 b 122 175 196 263 156 218 b 104 122 113 163 104 143 b 210 -6 104 47 164 -4 b 440 -8 286 -8 363 -8 b 621 -6 500 -8 560 -7 b 708 -6 650 -6 679 -7 b 782 121 757 0 782 69 b 715 221 782 176 761 219 z "},"3":{"ha":865,"x_min":0,"x_max":0,"o":"m 240 263 b 219 279 235 268 226 274 b 189 290 211 283 200 290 b 72 146 144 290 72 215 b 103 85 72 118 83 96 b 422 -7 190 33 326 -7 b 786 303 550 -7 786 60 b 619 565 786 447 703 525 b 689 739 654 608 689 669 b 432 988 689 886 574 988 b 182 897 344 988 256 942 b 133 810 150 876 133 849 b 240 671 133 738 192 671 b 301 701 263 671 283 683 b 436 761 343 743 385 761 b 461 757 444 761 454 760 b 469 746 468 753 469 749 b 382 658 469 711 408 672 b 256 596 333 628 276 606 b 219 568 243 590 231 583 b 206 508 208 550 206 528 b 293 376 206 447 240 376 b 310 378 299 376 304 378 b 390 385 338 382 363 385 b 568 304 443 385 568 379 b 404 215 568 232 458 215 b 240 263 349 215 290 229 z "},"4":{"ha":864,"x_min":0,"x_max":0,"o":"m 65 339 l 65 329 b 94 244 65 297 74 267 b 414 174 161 179 340 174 l 486 174 l 486 81 b 535 14 488 42 514 22 b 597 1 557 3 582 1 b 711 96 656 1 711 29 b 710 190 711 128 710 160 b 738 193 719 192 728 192 b 796 294 776 200 796 250 b 719 419 796 349 772 419 l 710 419 b 711 497 710 444 711 472 b 693 536 711 517 701 528 b 603 564 671 556 631 564 b 499 506 564 564 506 551 b 489 399 494 471 492 433 b 415 397 464 399 440 397 b 328 401 386 397 357 399 b 460 603 367 475 413 539 b 621 819 515 674 571 743 b 636 863 628 829 636 844 b 504 983 636 942 540 983 b 446 954 482 983 461 975 b 206 624 364 844 281 739 b 65 339 172 576 72 406 z "},"5":{"ha":913,"x_min":0,"x_max":0,"o":"m 329 672 b 347 754 333 701 339 728 l 358 754 b 528 749 414 754 471 749 b 576 749 542 749 557 747 b 704 863 647 754 704 778 b 613 982 704 935 661 982 b 514 975 579 982 547 975 b 358 981 461 975 410 981 b 189 931 303 981 224 981 b 124 769 157 885 138 828 b 92 596 111 714 103 653 b 89 571 90 589 89 579 b 222 444 89 476 178 444 b 360 447 268 444 315 447 b 601 390 421 447 564 444 b 615 328 611 376 615 350 b 610 290 615 313 614 299 b 454 235 585 246 501 235 b 264 299 376 235 325 254 b 229 313 256 306 243 313 b 110 174 186 313 110 242 b 131 122 110 149 119 135 b 460 10 206 39 368 10 b 836 324 590 10 836 71 b 357 672 836 657 517 672 z "},"6":{"ha":992,"x_min":0,"x_max":0,"o":"m 324 600 b 568 776 364 726 460 776 b 658 744 600 776 639 769 b 715 715 676 721 689 715 b 825 806 767 715 825 749 b 819 836 825 815 822 826 b 529 994 765 960 617 994 b 86 485 253 994 86 746 b 506 -6 86 167 293 -6 b 910 368 714 -6 910 151 b 579 665 910 565 758 665 b 324 600 493 665 404 643 z m 339 329 b 569 439 397 396 494 439 b 692 372 615 439 692 435 b 644 272 692 335 668 297 b 513 219 608 235 558 219 b 339 329 443 219 376 253 z "},"7":{"ha":794,"x_min":0,"x_max":0,"o":"m 463 757 b 254 353 397 619 328 483 b 138 150 217 283 175 219 b 128 115 132 142 128 131 b 265 -1 128 57 211 -1 b 326 32 288 -1 308 4 b 444 235 367 96 406 167 b 708 744 539 397 629 568 b 729 850 722 776 729 814 b 586 989 729 982 650 989 b 300 981 490 989 394 981 b 153 990 250 981 201 985 l 147 990 b 68 864 94 990 68 915 b 125 763 68 815 86 774 b 193 756 139 757 165 756 l 263 756 b 463 757 331 756 397 756 z "},"8":{"ha":917,"x_min":0,"x_max":0,"o":"m 228 485 b 104 225 164 428 104 333 b 433 -25 104 13 333 -25 b 831 311 640 -25 831 90 b 693 539 831 431 765 506 b 783 731 746 575 783 643 b 467 1000 783 957 582 1000 b 292 971 411 1000 349 996 b 92 685 206 935 92 833 b 228 485 92 578 164 515 z m 535 414 b 619 310 574 397 619 357 b 440 203 619 231 503 203 b 356 214 422 203 386 204 b 317 233 339 218 326 225 b 304 257 307 240 304 249 b 331 299 304 267 311 282 b 400 349 349 317 372 332 b 535 414 453 378 508 400 z m 486 635 b 386 663 467 639 425 647 b 333 688 365 669 347 678 b 317 710 319 699 317 707 b 326 726 317 713 319 718 b 472 785 360 767 422 785 b 588 725 503 785 588 765 b 578 704 588 721 586 714 b 549 674 571 693 560 683 b 486 635 526 657 500 643 z "},"9":{"ha":990,"x_min":0,"x_max":0,"o":"m 172 153 b 463 -6 226 29 374 -6 b 906 504 743 -6 906 247 b 482 993 906 826 694 993 b 82 621 274 993 82 836 b 413 325 82 383 288 325 b 668 389 499 325 588 346 b 425 213 628 261 533 213 b 333 244 390 213 354 219 b 276 275 314 268 304 275 b 167 185 226 275 167 240 b 172 153 167 174 169 163 z m 653 660 b 422 550 594 592 497 550 b 342 561 400 550 367 550 b 300 618 315 571 300 588 b 349 718 300 654 324 693 b 481 768 383 753 435 768 b 653 660 550 768 615 735 z "},"\u0000":{"ha":0,"x_min":0,"x_max":0,"o":""},"\r":{"ha":0,"x_min":0,"x_max":0,"o":""}," ":{"ha":347,"x_min":0,"x_max":0,"o":""},"\n":{"ha":0,"x_min":0,"x_max":0,"o":""},"!":{"ha":435,"x_min":0,"x_max":0,"o":"m 224 -42 b 340 76 264 -42 340 -4 b 232 189 340 156 272 189 b 114 71 189 189 114 157 b 224 -42 114 -7 185 -42 z m 328 414 b 315 485 317 438 315 456 l 315 514 b 322 768 317 597 318 685 b 329 888 325 808 324 850 b 331 903 329 893 331 897 b 333 919 332 907 333 913 b 226 993 333 974 271 993 b 111 908 174 993 111 969 b 96 500 108 772 96 636 b 231 271 96 376 110 271 b 335 374 268 271 335 286 b 328 414 335 386 332 401 z "},"\"":{"ha":474,"x_min":0,"x_max":0,"o":"m 65 719 b 147 646 78 675 113 646 b 231 763 194 646 231 700 b 229 869 231 797 229 833 b 144 985 229 932 189 985 b 61 889 104 985 64 944 b 60 828 60 868 60 849 l 60 775 b 65 719 61 757 63 732 z m 251 718 b 332 644 263 674 297 644 b 414 739 371 644 407 683 b 415 778 415 751 415 765 b 414 868 415 808 414 839 b 329 982 414 929 374 982 b 244 888 292 982 250 944 b 243 842 243 872 243 857 b 244 781 243 829 244 806 b 251 718 246 760 247 732 z "},"„":{"ha":474,"x_min":0,"x_max":0,"o":"m 65 719 b 147 646 78 675 113 646 b 231 763 194 646 231 700 b 229 869 231 797 229 833 b 144 985 229 932 189 985 b 61 889 104 985 64 944 b 60 828 60 868 60 849 l 60 775 b 65 719 61 757 63 732 z m 251 718 b 332 644 263 674 297 644 b 414 739 371 644 407 683 b 415 778 415 751 415 765 b 414 868 415 808 414 839 b 329 982 414 929 374 982 b 244 888 292 982 250 944 b 243 842 243 872 243 857 b 244 781 243 829 244 806 b 251 718 246 760 247 732 z "},"‟":{"ha":474,"x_min":0,"x_max":0,"o":"m 65 719 b 147 646 78 675 113 646 b 231 763 194 646 231 700 b 229 869 231 797 229 833 b 144 985 229 932 189 985 b 61 889 104 985 64 944 b 60 828 60 868 60 849 l 60 775 b 65 719 61 757 63 732 z m 251 718 b 332 644 263 674 297 644 b 414 739 371 644 407 683 b 415 778 415 751 415 765 b 414 868 415 808 414 839 b 329 982 414 929 374 982 b 244 888 292 982 250 944 b 243 842 243 872 243 857 b 244 781 243 829 244 806 b 251 718 246 760 247 732 z "},"#":{"ha":1004,"x_min":0,"x_max":0,"o":"m 165 182 b 157 132 163 165 160 147 b 149 54 153 106 149 79 b 182 0 149 22 167 7 b 228 -6 199 -6 217 -6 b 356 47 258 -6 331 7 b 388 185 367 69 382 144 b 517 192 432 188 474 189 b 500 88 515 176 506 100 b 499 71 499 82 499 76 b 543 17 499 44 518 24 b 593 7 561 8 583 7 b 735 143 697 7 729 49 b 740 207 736 163 738 185 l 778 207 b 829 214 794 207 813 208 b 878 304 861 222 878 268 b 792 435 878 369 849 435 l 785 435 b 800 511 790 461 794 485 b 925 632 888 511 925 536 b 846 739 925 703 897 739 l 844 739 b 853 788 847 753 850 769 b 863 829 857 803 860 817 b 865 844 864 835 865 840 b 868 856 867 850 868 854 b 729 953 868 918 782 953 b 657 908 699 953 665 940 b 619 743 643 856 631 799 b 536 746 592 746 563 746 l 500 746 b 511 782 504 758 508 769 b 524 854 518 804 524 828 b 504 900 524 875 515 890 b 397 931 479 925 429 931 b 347 924 385 931 364 931 b 301 875 329 918 307 907 b 272 749 294 831 283 790 b 261 751 269 750 265 750 b 238 756 254 754 246 756 b 161 624 183 756 161 675 b 219 526 161 588 172 526 b 225 525 221 525 222 525 b 203 406 217 486 210 446 b 188 410 197 407 193 408 b 157 415 178 413 167 415 b 75 285 103 415 75 339 b 147 185 75 226 92 197 b 165 182 153 183 160 183 z m 428 413 b 447 519 433 449 440 483 b 546 521 479 519 513 521 l 578 521 b 558 422 572 486 565 454 b 428 413 515 419 471 415 z "},"$":{"ha":939,"x_min":0,"x_max":0,"o":"m 339 -10 l 339 -19 b 338 -53 339 -31 338 -42 b 360 -96 338 -74 350 -87 b 475 -124 388 -112 444 -124 b 513 -119 481 -124 497 -124 b 533 -111 519 -118 528 -115 b 550 -83 540 -108 550 -100 b 553 -7 550 -57 551 -33 b 847 306 667 17 847 99 b 651 568 847 461 736 531 b 508 617 606 588 556 601 b 346 692 458 629 383 654 b 336 715 339 701 336 710 b 349 732 336 718 338 724 b 474 763 374 753 443 763 b 613 735 514 763 579 756 b 651 675 632 721 643 696 b 729 625 665 649 686 625 b 844 753 776 625 844 668 b 821 831 844 783 833 810 b 563 981 758 928 651 967 l 563 992 b 564 997 563 994 564 996 b 567 1006 565 1000 565 1003 b 568 1015 567 1007 568 1010 b 518 1093 568 1057 542 1081 b 449 1110 493 1104 465 1110 b 347 1025 396 1110 347 1082 b 346 1000 346 1017 346 1008 b 344 971 344 990 344 981 b 117 715 256 947 117 874 b 382 422 117 539 258 467 b 558 364 447 399 511 382 b 629 307 579 356 629 335 b 429 201 629 228 489 201 b 289 257 382 201 315 214 b 279 292 283 268 282 279 b 278 301 279 294 279 299 b 276 314 278 306 276 310 b 264 336 274 322 271 331 b 214 354 251 351 226 354 b 86 243 154 354 86 307 b 175 60 86 164 132 96 b 339 -10 224 19 283 1 z "},"%":{"ha":1310,"x_min":0,"x_max":0,"o":"m 1089 461 b 1088 464 1089 461 1089 463 b 1079 472 1086 465 1082 468 b 1069 481 1076 475 1072 476 b 1058 489 1065 483 1063 486 b 978 510 1033 503 1006 510 b 763 193 861 510 763 339 b 961 -40 763 40 864 -40 b 1240 272 1101 -40 1240 50 b 1144 442 1240 358 1225 411 b 1089 461 1129 449 1110 454 z m 397 986 b 389 996 396 989 392 992 b 378 1006 385 999 382 1003 b 367 1014 374 1008 371 1011 b 289 1035 343 1028 315 1035 b 72 719 171 1035 72 868 b 272 485 72 564 171 485 b 551 801 415 485 551 576 b 417 981 551 897 513 961 b 406 983 414 982 410 982 b 397 986 403 983 400 986 z m 371 -14 b 436 21 399 -14 417 -6 b 936 729 606 254 775 489 b 974 788 947 749 961 767 b 1008 851 986 808 999 828 b 1017 886 1014 863 1017 872 b 893 1017 1017 968 939 1017 b 800 940 849 1017 821 975 b 769 896 790 925 779 911 b 324 238 624 675 476 454 b 260 154 301 210 279 183 b 249 117 251 143 249 132 b 371 -14 249 46 333 -14 z m 982 188 l 982 192 b 996 256 982 214 988 236 b 1021 244 1004 251 1013 247 b 982 188 1018 208 1010 194 z m 292 713 l 292 721 b 306 781 292 742 296 764 b 331 769 313 776 321 772 b 292 713 325 733 317 718 z "},"&":{"ha":867,"x_min":0,"x_max":0,"o":"m 306 -36 b 357 -87 314 -65 338 -81 b 413 -99 375 -96 399 -99 b 518 -43 454 -99 500 -83 b 524 -10 522 -32 524 -19 l 524 -1 b 763 85 604 13 688 42 b 793 142 779 94 793 113 b 681 290 793 207 726 290 b 649 279 668 290 657 283 b 625 260 640 274 632 265 b 461 215 576 229 517 215 b 299 306 404 215 299 231 b 361 371 299 335 321 357 b 467 383 400 382 446 383 b 572 376 503 383 538 376 b 661 510 626 376 661 446 b 615 594 661 551 643 581 b 486 657 593 606 538 628 b 397 746 460 671 397 711 b 408 757 397 749 397 753 b 440 760 419 760 431 760 b 565 701 483 760 532 739 b 621 672 581 685 599 672 b 735 808 669 672 735 732 b 689 892 735 851 713 876 b 567 958 650 917 610 940 b 568 963 567 958 567 960 b 569 975 568 967 569 971 b 571 990 571 981 571 985 b 525 1063 571 1031 547 1053 b 460 1079 503 1075 476 1079 b 360 1032 436 1079 382 1069 b 350 994 354 1021 351 1007 b 349 974 349 988 349 981 b 178 742 269 950 178 869 b 249 565 178 669 211 610 b 79 301 163 525 79 446 b 304 14 79 133 206 46 l 304 -19 b 306 -36 304 -25 306 -31 z "},"'":{"ha":289,"x_min":0,"x_max":0,"o":"m 65 719 b 147 646 78 675 113 646 b 231 763 194 646 231 700 b 229 869 231 797 229 833 b 144 985 229 932 189 985 b 61 889 104 985 64 944 b 60 828 60 868 60 849 l 60 775 b 65 719 61 757 63 732 z "},"‚":{"ha":289,"x_min":0,"x_max":0,"o":"m 65 719 b 147 646 78 675 113 646 b 231 763 194 646 231 700 b 229 869 231 797 229 833 b 144 985 229 932 189 985 b 61 889 104 985 64 944 b 60 828 60 868 60 849 l 60 775 b 65 719 61 757 63 732 z "},"‛":{"ha":289,"x_min":0,"x_max":0,"o":"m 65 719 b 147 646 78 675 113 646 b 231 763 194 646 231 700 b 229 869 231 797 229 833 b 144 985 229 932 189 985 b 61 889 104 985 64 944 b 60 828 60 868 60 849 l 60 775 b 65 719 61 757 63 732 z "},"(":{"ha":554,"x_min":0,"x_max":0,"o":"m 451 -101 b 436 -83 446 -96 442 -89 b 421 -68 431 -78 426 -74 b 394 -39 411 -58 403 -50 b 308 319 332 57 308 190 b 446 792 308 485 354 654 b 483 846 457 811 471 826 b 497 890 492 858 497 871 b 369 1024 497 963 410 1024 b 171 740 300 1024 193 794 b 90 322 119 611 90 471 b 293 -257 90 115 156 -139 b 333 -271 306 -268 319 -271 b 474 -157 383 -271 474 -217 b 464 -124 474 -144 468 -132 b 451 -101 460 -114 454 -106 z "},")":{"ha":556,"x_min":0,"x_max":0,"o":"m 125 -81 b 93 -121 114 -92 101 -104 b 83 -156 88 -131 83 -143 b 222 -271 83 -215 167 -271 b 264 -257 235 -271 251 -268 b 376 -101 306 -222 353 -151 b 465 319 438 22 465 175 b 226 1007 465 549 385 833 b 186 1024 214 1019 201 1024 b 60 889 146 1024 60 964 b 74 844 60 868 65 857 b 249 322 179 701 249 526 b 143 -62 249 213 225 19 b 125 -81 138 -68 131 -74 z "},"*":{"ha":724,"x_min":0,"x_max":0,"o":"m 269 442 b 288 382 272 425 275 403 b 383 326 310 343 353 326 b 492 438 422 326 492 363 b 483 513 492 457 488 485 b 476 551 481 525 478 539 b 543 535 497 543 521 535 b 654 647 583 535 654 564 b 581 754 654 710 613 743 b 524 776 561 761 543 768 b 538 793 529 782 533 788 b 567 822 549 806 558 815 b 608 857 579 828 601 846 b 632 922 622 871 632 893 b 522 1038 632 1004 561 1038 b 503 1036 515 1038 508 1036 b 457 1017 486 1033 471 1025 b 349 1108 447 1082 382 1108 b 217 963 271 1108 225 1031 b 182 967 204 965 193 967 b 75 858 146 967 75 935 b 188 714 75 786 133 749 b 111 608 163 678 138 643 b 85 539 100 593 85 571 b 190 421 85 458 146 421 b 269 451 210 421 247 429 z "},"+":{"ha":890,"x_min":0,"x_max":0,"o":"m 319 289 b 328 139 319 243 321 174 b 438 44 340 71 397 44 b 546 154 474 44 546 75 b 539 294 546 200 542 247 b 663 296 581 294 622 296 b 740 300 688 297 715 296 b 832 414 778 307 832 342 b 725 525 832 492 765 525 b 543 522 664 525 603 522 l 543 599 b 543 638 543 611 544 624 b 432 771 543 707 511 771 b 324 661 393 771 324 740 b 324 517 324 613 325 565 b 186 510 276 513 232 510 b 60 400 115 510 60 474 b 157 283 60 325 115 289 b 204 283 172 283 188 283 b 319 289 243 283 281 285 z "},",":{"ha":329,"x_min":0,"x_max":0,"o":"m 279 57 b 285 92 283 68 285 78 b 176 208 285 175 221 208 b 63 104 124 208 81 171 b 31 -58 53 75 31 -25 b 139 -172 31 -140 97 -172 b 249 -78 179 -172 236 -147 b 258 -17 250 -65 254 -40 b 269 35 261 8 267 28 b 279 57 274 44 278 50 z "},"-":{"ha":675,"x_min":0,"x_max":0,"o":"m 486 274 b 519 269 497 274 508 269 b 628 381 556 269 628 303 b 610 443 628 401 622 428 b 535 494 589 476 561 489 b 453 499 508 500 479 499 b 239 494 382 499 310 494 b 151 507 208 494 179 507 b 46 396 114 507 46 469 b 231 269 46 290 146 269 b 451 275 304 269 376 275 b 486 274 463 275 474 275 z "},".":{"ha":304,"x_min":0,"x_max":0,"o":"m 150 -25 b 261 90 190 -25 261 7 b 153 203 261 171 190 203 b 42 86 110 203 42 167 b 150 -25 42 6 108 -25 z "},"/":{"ha":653,"x_min":0,"x_max":0,"o":"m 126 -243 b 228 -167 160 -243 213 -218 b 279 8 246 -108 258 -49 b 426 394 326 139 381 264 b 524 711 461 499 493 604 b 569 860 539 761 553 811 b 582 893 574 871 579 882 b 590 938 586 907 590 919 b 481 1049 590 1017 519 1049 b 386 993 453 1049 406 1029 b 357 921 374 971 365 946 b 338 849 351 897 344 871 b 185 379 289 690 243 531 b 94 142 156 299 124 222 b 18 -104 65 63 40 -18 b 15 -128 17 -111 15 -119 b 126 -243 15 -211 85 -243 z "},":":{"ha":360,"x_min":0,"x_max":0,"o":"m 78 85 b 192 -29 78 0 151 -29 b 299 90 238 -29 299 10 b 185 199 299 175 225 199 b 78 85 142 199 78 164 z m 64 608 b 181 515 82 540 136 515 b 288 625 219 515 288 550 b 175 747 288 708 218 747 b 63 631 133 747 63 717 b 64 608 63 624 63 617 z "},";":{"ha":369,"x_min":0,"x_max":0,"o":"m 188 525 b 300 650 236 525 300 565 b 189 764 300 731 231 764 b 75 638 144 764 75 721 b 188 525 75 553 147 525 z m 39 -81 b 38 -99 39 -86 38 -93 b 149 -214 38 -181 106 -214 b 229 -175 174 -214 208 -199 b 258 -104 247 -153 253 -131 b 278 -6 258 -89 272 -24 b 281 7 279 0 279 4 b 282 11 281 8 282 10 b 306 85 292 28 306 51 b 193 194 306 167 232 194 b 56 4 101 194 68 78 b 39 -81 49 -24 44 -54 z "},"<":{"ha":836,"x_min":0,"x_max":0,"o":"m 404 425 b 600 501 468 453 535 476 b 715 543 639 515 678 526 b 761 621 751 558 761 582 b 658 761 761 683 706 761 b 642 757 653 761 647 760 b 368 654 558 725 463 693 b 106 515 275 617 182 571 b 61 425 82 497 61 468 b 106 332 61 381 82 350 b 250 249 151 299 200 272 b 397 183 299 225 350 204 b 606 78 468 151 538 119 b 632 69 614 74 622 69 b 756 211 676 69 756 138 b 750 242 756 221 754 232 b 565 354 733 275 647 318 b 404 425 507 381 446 407 z "},"=":{"ha":808,"x_min":0,"x_max":0,"o":"m 615 128 b 651 132 626 128 640 128 b 726 186 674 138 711 150 b 742 238 733 197 742 217 b 649 353 742 308 688 349 b 611 354 636 354 624 354 b 325 331 515 354 421 331 b 171 338 274 331 222 338 b 64 232 136 338 64 307 b 192 111 64 151 119 117 b 239 107 210 110 226 108 b 311 104 263 106 286 104 b 582 128 401 104 492 118 b 615 128 593 129 604 129 z m 200 410 b 557 425 319 410 439 425 b 635 422 582 425 608 422 b 739 535 675 422 739 460 b 642 647 739 610 678 643 b 538 651 607 650 571 651 b 200 636 425 651 313 640 b 89 522 160 635 89 604 b 200 410 89 440 161 410 z "},">":{"ha":833,"x_min":0,"x_max":0,"o":"m 433 425 b 285 364 386 404 336 385 b 106 264 219 335 154 303 b 79 208 92 253 79 235 b 201 71 79 139 160 71 b 232 78 211 71 222 72 b 424 176 294 114 357 146 b 578 244 474 199 526 221 b 731 332 631 269 682 297 b 775 426 753 350 775 381 b 733 514 775 468 756 497 b 468 654 656 569 563 614 b 194 757 374 693 276 726 b 178 760 189 760 183 760 b 74 618 129 760 74 686 b 121 543 74 574 97 553 b 235 501 158 526 197 515 b 433 425 301 476 367 453 z "},"?":{"ha":764,"x_min":0,"x_max":0,"o":"m 446 119 b 340 189 421 175 382 189 b 235 75 297 189 235 153 b 342 -36 235 -4 304 -36 b 454 81 385 -36 454 -6 b 446 119 454 94 453 107 z m 440 314 b 442 326 440 322 440 325 b 460 353 442 331 447 338 b 506 392 472 365 489 379 b 593 463 540 421 578 447 b 693 685 649 515 693 583 b 401 990 693 857 574 990 b 75 799 269 990 147 906 b 61 756 68 790 61 774 b 189 624 61 679 150 624 b 250 663 215 624 235 640 b 400 765 288 717 349 765 b 474 688 444 765 474 742 b 422 608 474 651 450 629 b 350 554 400 590 375 574 b 225 367 297 514 244 458 b 219 313 222 349 219 332 b 258 222 219 265 235 236 b 332 207 279 208 307 207 b 442 294 386 207 442 232 b 440 314 442 300 442 307 z "},"@":{"ha":1497,"x_min":0,"x_max":0,"o":"m 875 182 b 1094 69 938 104 1010 69 b 1417 425 1243 69 1417 186 b 1361 663 1417 508 1394 593 b 774 1022 1243 919 981 1022 b 85 283 372 1022 85 668 b 626 -285 85 -47 285 -285 b 876 -246 710 -285 797 -275 b 938 -162 917 -226 938 -207 b 831 -18 938 -96 879 -18 b 799 -28 817 -18 808 -22 b 636 -58 750 -57 693 -58 b 497 -42 589 -58 543 -56 b 304 286 378 -1 304 119 b 463 669 304 442 371 576 b 785 796 553 761 672 796 b 1181 522 938 796 1114 717 b 1199 424 1192 490 1199 457 b 1092 294 1199 343 1151 294 b 1001 453 1038 294 1010 411 b 989 486 999 465 994 476 b 996 529 993 500 996 514 b 988 572 996 546 993 558 b 782 701 946 669 854 701 b 406 275 574 701 406 468 b 619 53 406 108 525 53 b 875 182 711 53 807 92 z m 625 281 b 779 476 628 364 718 476 b 790 475 785 476 788 476 b 742 378 775 446 758 410 b 676 294 719 340 697 310 b 625 281 660 285 644 282 z "},"A":{"ha":954,"x_min":0,"x_max":0,"o":"m 632 178 b 657 89 639 154 649 121 b 708 -4 669 51 686 8 b 746 -12 721 -11 736 -12 b 842 8 763 -12 804 -6 b 892 39 858 17 878 26 b 919 92 906 49 919 67 b 915 113 919 100 918 107 b 740 628 849 283 801 458 b 588 946 703 731 649 863 b 490 985 563 979 519 985 b 372 924 438 985 397 972 b 357 894 367 914 361 904 b 46 110 219 650 106 385 b 42 89 46 108 43 97 b 38 74 40 83 39 78 b 36 61 36 67 36 63 b 192 -7 36 0 147 -7 b 236 -6 201 -7 219 -7 b 283 17 253 -3 272 3 b 288 25 285 19 286 22 b 290 33 289 28 289 31 b 296 51 292 39 293 44 b 306 104 299 67 301 86 b 318 178 310 132 314 160 z m 393 404 b 479 617 421 476 449 547 b 565 404 508 546 538 476 z "},"À":{"ha":954,"x_min":0,"x_max":0,"o":"m 632 178 b 657 89 639 154 649 121 b 708 -4 669 51 686 8 b 746 -12 721 -11 736 -12 b 842 8 763 -12 804 -6 b 892 39 858 17 878 26 b 919 92 906 49 919 67 b 915 113 919 100 918 107 b 740 628 849 283 801 458 b 588 946 703 731 649 863 b 490 985 563 979 519 985 b 372 924 438 985 397 972 b 357 894 367 914 361 904 b 46 110 219 650 106 385 b 42 89 46 108 43 97 b 38 74 40 83 39 78 b 36 61 36 67 36 63 b 192 -7 36 0 147 -7 b 236 -6 201 -7 219 -7 b 283 17 253 -3 272 3 b 288 25 285 19 286 22 b 290 33 289 28 289 31 b 296 51 292 39 293 44 b 306 104 299 67 301 86 b 318 178 310 132 314 160 z m 393 404 b 479 617 421 476 449 547 b 565 404 508 546 538 476 z "},"Á":{"ha":954,"x_min":0,"x_max":0,"o":"m 632 178 b 657 89 639 154 649 121 b 708 -4 669 51 686 8 b 746 -12 721 -11 736 -12 b 842 8 763 -12 804 -6 b 892 39 858 17 878 26 b 919 92 906 49 919 67 b 915 113 919 100 918 107 b 740 628 849 283 801 458 b 588 946 703 731 649 863 b 490 985 563 979 519 985 b 372 924 438 985 397 972 b 357 894 367 914 361 904 b 46 110 219 650 106 385 b 42 89 46 108 43 97 b 38 74 40 83 39 78 b 36 61 36 67 36 63 b 192 -7 36 0 147 -7 b 236 -6 201 -7 219 -7 b 283 17 253 -3 272 3 b 288 25 285 19 286 22 b 290 33 289 28 289 31 b 296 51 292 39 293 44 b 306 104 299 67 301 86 b 318 178 310 132 314 160 z m 393 404 b 479 617 421 476 449 547 b 565 404 508 546 538 476 z "},"Â":{"ha":954,"x_min":0,"x_max":0,"o":"m 632 178 b 657 89 639 154 649 121 b 708 -4 669 51 686 8 b 746 -12 721 -11 736 -12 b 842 8 763 -12 804 -6 b 892 39 858 17 878 26 b 919 92 906 49 919 67 b 915 113 919 100 918 107 b 740 628 849 283 801 458 b 588 946 703 731 649 863 b 490 985 563 979 519 985 b 372 924 438 985 397 972 b 357 894 367 914 361 904 b 46 110 219 650 106 385 b 42 89 46 108 43 97 b 38 74 40 83 39 78 b 36 61 36 67 36 63 b 192 -7 36 0 147 -7 b 236 -6 201 -7 219 -7 b 283 17 253 -3 272 3 b 288 25 285 19 286 22 b 290 33 289 28 289 31 b 296 51 292 39 293 44 b 306 104 299 67 301 86 b 318 178 310 132 314 160 z m 393 404 b 479 617 421 476 449 547 b 565 404 508 546 538 476 z "},"Ã":{"ha":954,"x_min":0,"x_max":0,"o":"m 632 178 b 657 89 639 154 649 121 b 708 -4 669 51 686 8 b 746 -12 721 -11 736 -12 b 842 8 763 -12 804 -6 b 892 39 858 17 878 26 b 919 92 906 49 919 67 b 915 113 919 100 918 107 b 740 628 849 283 801 458 b 588 946 703 731 649 863 b 490 985 563 979 519 985 b 372 924 438 985 397 972 b 357 894 367 914 361 904 b 46 110 219 650 106 385 b 42 89 46 108 43 97 b 38 74 40 83 39 78 b 36 61 36 67 36 63 b 192 -7 36 0 147 -7 b 236 -6 201 -7 219 -7 b 283 17 253 -3 272 3 b 288 25 285 19 286 22 b 290 33 289 28 289 31 b 296 51 292 39 293 44 b 306 104 299 67 301 86 b 318 178 310 132 314 160 z m 393 404 b 479 617 421 476 449 547 b 565 404 508 546 538 476 z "},"Ä":{"ha":954,"x_min":0,"x_max":0,"o":"m 632 178 b 657 89 639 154 649 121 b 708 -4 669 51 686 8 b 746 -12 721 -11 736 -12 b 842 8 763 -12 804 -6 b 892 39 858 17 878 26 b 919 92 906 49 919 67 b 915 113 919 100 918 107 b 740 628 849 283 801 458 b 588 946 703 731 649 863 b 490 985 563 979 519 985 b 372 924 438 985 397 972 b 357 894 367 914 361 904 b 46 110 219 650 106 385 b 42 89 46 108 43 97 b 38 74 40 83 39 78 b 36 61 36 67 36 63 b 192 -7 36 0 147 -7 b 236 -6 201 -7 219 -7 b 283 17 253 -3 272 3 b 288 25 285 19 286 22 b 290 33 289 28 289 31 b 296 51 292 39 293 44 b 306 104 299 67 301 86 b 318 178 310 132 314 160 z m 393 404 b 479 617 421 476 449 547 b 565 404 508 546 538 476 z "},"Å":{"ha":954,"x_min":0,"x_max":0,"o":"m 632 178 b 657 89 639 154 649 121 b 708 -4 669 51 686 8 b 746 -12 721 -11 736 -12 b 842 8 763 -12 804 -6 b 892 39 858 17 878 26 b 919 92 906 49 919 67 b 915 113 919 100 918 107 b 740 628 849 283 801 458 b 588 946 703 731 649 863 b 490 985 563 979 519 985 b 372 924 438 985 397 972 b 357 894 367 914 361 904 b 46 110 219 650 106 385 b 42 89 46 108 43 97 b 38 74 40 83 39 78 b 36 61 36 67 36 63 b 192 -7 36 0 147 -7 b 236 -6 201 -7 219 -7 b 283 17 253 -3 272 3 b 288 25 285 19 286 22 b 290 33 289 28 289 31 b 296 51 292 39 293 44 b 306 104 299 67 301 86 b 318 178 310 132 314 160 z m 393 404 b 479 617 421 476 449 547 b 565 404 508 546 538 476 z "},"B":{"ha":932,"x_min":0,"x_max":0,"o":"m 721 494 b 828 710 772 542 828 619 b 790 844 828 760 814 807 b 426 1008 706 979 543 1008 b 315 1001 389 1008 353 1007 b 260 993 297 1000 276 993 l 253 993 b 244 996 250 994 247 994 b 235 999 242 996 239 997 l 224 999 b 113 871 171 999 113 961 b 114 822 113 856 114 839 l 114 814 b 100 432 108 686 100 560 b 119 124 100 329 106 226 b 149 44 124 92 129 69 b 401 -17 199 -15 344 -17 b 669 28 490 -17 583 -8 b 863 275 747 58 863 132 b 721 494 863 381 786 458 z m 329 213 b 322 329 325 250 324 289 b 476 335 374 332 425 335 b 547 329 496 335 522 335 b 588 310 563 325 578 319 b 600 283 596 303 600 293 b 579 247 600 271 594 260 b 397 208 536 217 449 208 b 329 213 374 208 353 210 z m 321 504 b 332 776 324 594 328 686 b 408 783 357 781 382 783 b 576 688 465 783 576 760 b 575 678 576 683 576 679 b 321 504 554 574 408 518 z "},"C":{"ha":1014,"x_min":0,"x_max":0,"o":"m 546 -24 b 904 138 671 -24 806 26 b 956 236 926 160 956 203 b 821 369 956 311 856 369 b 788 354 807 369 797 365 b 538 218 711 271 636 218 b 308 463 421 218 308 296 b 553 775 308 636 426 775 b 707 697 608 775 668 750 b 725 669 714 686 719 676 b 803 619 746 640 763 619 b 936 719 856 619 936 660 b 931 749 936 732 933 742 b 553 992 860 932 688 992 b 63 482 269 992 63 756 b 546 -24 63 208 263 -24 z "},"Ç":{"ha":1014,"x_min":0,"x_max":0,"o":"m 546 -24 b 904 138 671 -24 806 26 b 956 236 926 160 956 203 b 821 369 956 311 856 369 b 788 354 807 369 797 365 b 538 218 711 271 636 218 b 308 463 421 218 308 296 b 553 775 308 636 426 775 b 707 697 608 775 668 750 b 725 669 714 686 719 676 b 803 619 746 640 763 619 b 936 719 856 619 936 660 b 931 749 936 732 933 742 b 553 992 860 932 688 992 b 63 482 269 992 63 756 b 546 -24 63 208 263 -24 z "},"D":{"ha":1033,"x_min":0,"x_max":0,"o":"m 118 57 b 225 -22 139 -3 183 -22 b 260 -18 238 -22 250 -18 b 563 21 363 -18 461 -11 b 974 517 736 75 974 219 b 872 807 974 629 933 733 b 399 986 750 957 553 986 b 176 958 353 986 219 986 b 114 826 138 933 117 872 b 110 768 111 808 111 789 b 103 324 104 621 103 472 b 118 57 103 269 103 99 z m 324 208 b 319 440 321 285 319 363 b 328 758 319 546 322 653 l 356 758 b 729 499 490 758 729 713 b 678 350 729 440 710 390 b 324 208 597 242 442 213 z "},"E":{"ha":781,"x_min":0,"x_max":0,"o":"m 318 574 b 346 761 325 636 336 699 b 461 765 383 764 424 765 b 563 763 476 765 521 764 b 658 767 604 763 649 763 b 711 890 699 782 711 853 b 672 982 711 939 696 968 b 638 992 661 988 650 990 b 599 993 625 993 613 993 b 392 990 564 993 476 993 b 199 963 310 986 224 979 b 143 883 176 950 151 921 b 89 407 115 739 89 558 b 175 42 89 324 106 93 b 392 -21 239 -4 322 -21 b 703 39 450 -21 667 0 b 725 106 718 56 725 83 b 643 242 725 161 697 242 l 632 242 b 394 204 553 232 474 204 b 331 213 372 204 351 206 b 310 347 319 256 313 301 l 519 347 b 589 469 569 347 589 425 b 521 574 589 518 567 574 z "},"È":{"ha":781,"x_min":0,"x_max":0,"o":"m 318 574 b 346 761 325 636 336 699 b 461 765 383 764 424 765 b 563 763 476 765 521 764 b 658 767 604 763 649 763 b 711 890 699 782 711 853 b 672 982 711 939 696 968 b 638 992 661 988 650 990 b 599 993 625 993 613 993 b 392 990 564 993 476 993 b 199 963 310 986 224 979 b 143 883 176 950 151 921 b 89 407 115 739 89 558 b 175 42 89 324 106 93 b 392 -21 239 -4 322 -21 b 703 39 450 -21 667 0 b 725 106 718 56 725 83 b 643 242 725 161 697 242 l 632 242 b 394 204 553 232 474 204 b 331 213 372 204 351 206 b 310 347 319 256 313 301 l 519 347 b 589 469 569 347 589 425 b 521 574 589 518 567 574 z "},"É":{"ha":781,"x_min":0,"x_max":0,"o":"m 318 574 b 346 761 325 636 336 699 b 461 765 383 764 424 765 b 563 763 476 765 521 764 b 658 767 604 763 649 763 b 711 890 699 782 711 853 b 672 982 711 939 696 968 b 638 992 661 988 650 990 b 599 993 625 993 613 993 b 392 990 564 993 476 993 b 199 963 310 986 224 979 b 143 883 176 950 151 921 b 89 407 115 739 89 558 b 175 42 89 324 106 93 b 392 -21 239 -4 322 -21 b 703 39 450 -21 667 0 b 725 106 718 56 725 83 b 643 242 725 161 697 242 l 632 242 b 394 204 553 232 474 204 b 331 213 372 204 351 206 b 310 347 319 256 313 301 l 519 347 b 589 469 569 347 589 425 b 521 574 589 518 567 574 z "},"Ê":{"ha":781,"x_min":0,"x_max":0,"o":"m 318 574 b 346 761 325 636 336 699 b 461 765 383 764 424 765 b 563 763 476 765 521 764 b 658 767 604 763 649 763 b 711 890 699 782 711 853 b 672 982 711 939 696 968 b 638 992 661 988 650 990 b 599 993 625 993 613 993 b 392 990 564 993 476 993 b 199 963 310 986 224 979 b 143 883 176 950 151 921 b 89 407 115 739 89 558 b 175 42 89 324 106 93 b 392 -21 239 -4 322 -21 b 703 39 450 -21 667 0 b 725 106 718 56 725 83 b 643 242 725 161 697 242 l 632 242 b 394 204 553 232 474 204 b 331 213 372 204 351 206 b 310 347 319 256 313 301 l 519 347 b 589 469 569 347 589 425 b 521 574 589 518 567 574 z "},"Ë":{"ha":781,"x_min":0,"x_max":0,"o":"m 318 574 b 346 761 325 636 336 699 b 461 765 383 764 424 765 b 563 763 476 765 521 764 b 658 767 604 763 649 763 b 711 890 699 782 711 853 b 672 982 711 939 696 968 b 638 992 661 988 650 990 b 599 993 625 993 613 993 b 392 990 564 993 476 993 b 199 963 310 986 224 979 b 143 883 176 950 151 921 b 89 407 115 739 89 558 b 175 42 89 324 106 93 b 392 -21 239 -4 322 -21 b 703 39 450 -21 667 0 b 725 106 718 56 725 83 b 643 242 725 161 697 242 l 632 242 b 394 204 553 232 474 204 b 331 213 372 204 351 206 b 310 347 319 256 313 301 l 519 347 b 589 469 569 347 589 425 b 521 574 589 518 567 574 z "},"F":{"ha":724,"x_min":0,"x_max":0,"o":"m 347 96 l 347 103 b 321 360 331 186 325 272 b 540 365 394 364 467 365 b 606 496 593 365 606 457 b 599 551 606 511 604 532 b 558 590 592 571 579 590 b 321 585 479 590 400 590 b 328 761 322 644 325 703 l 343 761 b 593 743 428 761 510 754 l 599 743 b 679 886 653 743 679 836 b 660 947 679 908 672 932 b 410 989 628 986 461 989 b 297 988 390 989 344 989 b 189 978 253 986 204 983 b 119 894 163 968 128 942 b 111 804 115 865 113 835 b 107 717 110 774 108 744 b 100 447 104 626 100 536 b 133 47 100 332 108 158 b 171 6 140 22 158 11 b 214 -1 188 0 203 -1 b 349 89 261 -1 349 29 b 347 96 349 90 349 93 z "},"G":{"ha":1028,"x_min":0,"x_max":0,"o":"m 736 333 b 540 218 724 256 608 218 b 310 465 419 218 310 293 b 556 775 310 643 428 775 b 710 690 617 775 678 742 b 733 658 718 679 725 669 b 797 619 749 638 768 619 b 875 642 814 619 846 626 b 936 718 906 656 936 682 b 933 740 936 726 935 733 b 928 756 932 744 929 750 b 549 992 850 936 686 992 b 63 483 269 992 63 754 b 542 -24 63 211 261 -24 b 956 413 743 -24 956 85 b 936 497 956 442 950 472 b 719 575 890 568 775 575 b 508 554 667 575 558 572 b 469 453 474 544 469 482 b 482 372 469 431 472 399 b 536 319 490 344 507 319 b 549 322 540 319 544 321 b 674 339 589 332 632 339 b 736 333 694 339 715 338 z "},"H":{"ha":976,"x_min":0,"x_max":0,"o":"m 118 26 b 194 0 139 6 171 0 b 344 101 253 0 344 31 b 343 117 344 107 344 113 b 328 329 335 188 329 258 b 633 338 429 329 532 331 b 633 65 632 246 633 157 b 718 -6 633 17 674 -6 b 875 172 851 -6 875 68 b 869 358 875 235 869 297 b 876 503 869 407 874 456 b 888 797 882 601 888 699 b 886 875 888 808 889 843 b 881 922 885 892 883 910 b 875 942 879 929 878 936 b 865 956 874 946 869 951 b 756 988 838 981 789 988 b 656 922 717 988 665 971 b 649 838 650 894 650 865 b 636 583 643 753 639 668 b 335 578 536 579 435 578 b 353 790 339 649 344 719 b 369 897 358 826 365 861 b 371 913 369 903 371 907 b 236 993 371 976 285 993 b 124 929 197 993 138 981 b 100 753 110 874 106 810 b 88 410 90 639 88 524 b 96 146 88 322 90 235 b 101 67 97 119 97 92 b 118 26 104 53 110 39 z "},"I":{"ha":450,"x_min":0,"x_max":0,"o":"m 365 110 b 347 374 350 196 347 285 b 396 889 347 547 363 719 b 397 904 397 894 397 900 b 343 971 397 939 369 960 b 258 985 314 981 282 985 b 140 922 219 985 156 974 b 115 758 125 869 119 811 b 100 404 103 640 100 521 b 110 138 100 315 104 226 b 115 61 111 113 111 86 b 132 18 115 46 121 32 b 211 -7 151 -1 189 -7 b 368 96 263 -7 368 18 b 367 104 368 100 367 103 b 365 110 367 106 365 107 z "},"Ì":{"ha":450,"x_min":0,"x_max":0,"o":"m 365 110 b 347 374 350 196 347 285 b 396 889 347 547 363 719 b 397 904 397 894 397 900 b 343 971 397 939 369 960 b 258 985 314 981 282 985 b 140 922 219 985 156 974 b 115 758 125 869 119 811 b 100 404 103 640 100 521 b 110 138 100 315 104 226 b 115 61 111 113 111 86 b 132 18 115 46 121 32 b 211 -7 151 -1 189 -7 b 368 96 263 -7 368 18 b 367 104 368 100 367 103 b 365 110 367 106 365 107 z "},"Í":{"ha":450,"x_min":0,"x_max":0,"o":"m 365 110 b 347 374 350 196 347 285 b 396 889 347 547 363 719 b 397 904 397 894 397 900 b 343 971 397 939 369 960 b 258 985 314 981 282 985 b 140 922 219 985 156 974 b 115 758 125 869 119 811 b 100 404 103 640 100 521 b 110 138 100 315 104 226 b 115 61 111 113 111 86 b 132 18 115 46 121 32 b 211 -7 151 -1 189 -7 b 368 96 263 -7 368 18 b 367 104 368 100 367 103 b 365 110 367 106 365 107 z "},"Î":{"ha":450,"x_min":0,"x_max":0,"o":"m 365 110 b 347 374 350 196 347 285 b 396 889 347 547 363 719 b 397 904 397 894 397 900 b 343 971 397 939 369 960 b 258 985 314 981 282 985 b 140 922 219 985 156 974 b 115 758 125 869 119 811 b 100 404 103 640 100 521 b 110 138 100 315 104 226 b 115 61 111 113 111 86 b 132 18 115 46 121 32 b 211 -7 151 -1 189 -7 b 368 96 263 -7 368 18 b 367 104 368 100 367 103 b 365 110 367 106 365 107 z "},"Ï":{"ha":450,"x_min":0,"x_max":0,"o":"m 365 110 b 347 374 350 196 347 285 b 396 889 347 547 363 719 b 397 904 397 894 397 900 b 343 971 397 939 369 960 b 258 985 314 981 282 985 b 140 922 219 985 156 974 b 115 758 125 869 119 811 b 100 404 103 640 100 521 b 110 138 100 315 104 226 b 115 61 111 113 111 86 b 132 18 115 46 121 32 b 211 -7 151 -1 189 -7 b 368 96 263 -7 368 18 b 367 104 368 100 367 103 b 365 110 367 106 365 107 z "},"J":{"ha":821,"x_min":0,"x_max":0,"o":"m 65 140 b 374 -21 131 15 274 -21 b 690 175 485 -21 629 25 b 729 418 721 250 729 335 b 706 925 729 586 706 756 b 686 964 706 944 696 957 b 654 979 678 971 665 976 b 597 988 633 986 608 988 b 504 958 568 988 526 981 b 486 915 494 950 486 935 b 503 460 486 764 503 613 b 368 204 503 299 499 204 b 268 235 338 204 288 213 b 253 290 257 250 254 264 b 157 356 249 343 201 356 b 35 271 99 356 35 339 b 65 140 35 233 50 172 z "},"K":{"ha":919,"x_min":0,"x_max":0,"o":"m 313 15 b 336 50 325 24 336 33 b 333 96 336 65 333 82 b 322 264 329 149 322 211 b 461 401 369 307 417 354 b 624 108 515 303 567 203 b 650 65 633 94 642 79 b 679 21 660 49 669 35 b 719 1 692 4 706 1 b 847 68 750 1 828 40 b 871 118 858 81 871 96 b 864 142 871 129 867 138 b 778 282 836 188 806 235 b 621 571 725 376 672 475 b 761 731 667 622 715 676 b 833 814 785 758 811 785 b 846 856 840 822 846 835 b 725 983 846 922 760 983 b 685 968 713 983 697 981 b 560 829 643 924 601 875 b 314 567 478 739 397 651 l 314 603 b 328 917 314 708 318 814 l 328 924 b 308 961 328 943 318 956 b 276 976 299 969 288 974 b 218 985 254 983 229 985 b 118 925 178 985 128 969 b 113 876 115 911 114 893 b 101 564 103 772 101 668 l 101 503 b 118 106 103 369 110 238 b 125 38 119 82 122 57 b 213 -4 132 0 182 -4 b 313 15 243 -4 285 1 z "},"L":{"ha":760,"x_min":0,"x_max":0,"o":"m 340 213 b 333 311 336 243 333 278 b 388 910 333 499 367 721 l 388 915 b 365 960 388 938 376 953 b 256 989 343 982 285 989 b 201 981 244 989 222 988 b 171 965 190 978 179 972 b 150 935 163 960 154 950 b 93 281 114 769 93 457 b 167 15 93 213 94 47 b 393 -22 236 -12 324 -22 b 557 -6 419 -22 489 -17 b 713 39 622 1 693 17 b 735 110 731 57 735 88 b 651 242 735 165 706 242 l 642 242 b 404 204 561 231 483 204 b 340 213 382 204 360 206 z "},"M":{"ha":1232,"x_min":0,"x_max":0,"o":"m 328 558 b 446 289 368 471 407 379 b 489 190 460 257 472 224 b 606 142 511 149 564 142 b 724 193 649 142 703 149 b 772 332 739 231 757 290 b 875 574 804 414 838 494 b 897 243 888 464 893 354 b 907 63 900 190 900 113 b 929 26 910 44 919 33 b 960 10 939 18 949 14 b 1021 1 983 3 1008 1 b 1071 7 1035 1 1051 3 b 1121 40 1088 13 1108 22 b 1126 67 1125 47 1126 64 b 1133 458 1126 197 1133 328 b 1078 938 1133 590 1122 828 b 953 985 1063 978 989 985 b 896 978 939 985 917 983 b 839 943 875 974 851 963 b 769 822 815 906 792 863 b 600 496 710 718 653 608 b 444 796 550 597 496 696 b 390 904 426 831 408 867 b 368 951 383 918 376 936 b 283 986 353 979 313 986 b 140 893 244 986 158 967 b 99 492 115 799 101 592 b 97 397 97 460 97 428 b 110 118 97 304 101 211 b 115 50 111 96 113 72 b 154 7 121 24 140 11 b 196 0 168 1 185 0 b 333 72 238 0 333 15 b 329 119 333 85 332 101 b 324 164 328 136 325 151 b 318 332 319 219 318 276 b 328 558 318 407 322 482 z "},"N":{"ha":1022,"x_min":0,"x_max":0,"o":"m 328 563 b 536 214 397 446 464 328 b 600 115 554 185 576 149 b 671 25 624 83 647 50 b 771 -6 699 -4 746 -6 b 889 32 811 -6 861 -1 b 903 65 894 40 901 50 b 911 274 910 133 910 206 b 917 707 917 418 917 563 l 917 919 b 908 957 917 929 915 944 b 818 992 890 985 849 992 b 718 961 786 992 743 982 b 697 919 708 954 697 940 b 679 408 697 749 685 578 b 583 572 646 461 614 515 b 472 779 546 640 510 711 b 379 947 443 838 411 892 b 367 963 375 954 372 957 b 301 985 346 981 325 985 b 214 965 281 985 246 979 b 142 890 183 954 150 931 b 121 731 132 839 128 783 b 97 269 106 578 97 425 b 101 71 97 204 96 136 b 203 3 108 17 154 3 b 321 74 246 3 321 18 b 328 563 321 236 318 400 z "},"Ñ":{"ha":1022,"x_min":0,"x_max":0,"o":"m 328 563 b 536 214 397 446 464 328 b 600 115 554 185 576 149 b 671 25 624 83 647 50 b 771 -6 699 -4 746 -6 b 889 32 811 -6 861 -1 b 903 65 894 40 901 50 b 911 274 910 133 910 206 b 917 707 917 418 917 563 l 917 919 b 908 957 917 929 915 944 b 818 992 890 985 849 992 b 718 961 786 992 743 982 b 697 919 708 954 697 940 b 679 408 697 749 685 578 b 583 572 646 461 614 515 b 472 779 546 640 510 711 b 379 947 443 838 411 892 b 367 963 375 954 372 957 b 301 985 346 981 325 985 b 214 965 281 985 246 979 b 142 890 183 954 150 931 b 121 731 132 839 128 783 b 97 269 106 578 97 425 b 101 71 97 204 96 136 b 203 3 108 17 154 3 b 321 74 246 3 321 18 b 328 563 321 236 318 400 z "},"O":{"ha":1117,"x_min":0,"x_max":0,"o":"m 551 -7 b 1053 482 846 -7 1053 192 b 569 989 1053 765 858 989 b 63 476 276 989 63 767 b 551 -7 63 196 265 -7 z m 332 483 b 563 742 332 618 419 742 b 783 486 704 742 783 615 b 554 240 783 353 696 240 b 332 483 415 240 332 354 z "},"Ò":{"ha":1117,"x_min":0,"x_max":0,"o":"m 551 -7 b 1053 482 846 -7 1053 192 b 569 989 1053 765 858 989 b 63 476 276 989 63 767 b 551 -7 63 196 265 -7 z m 332 483 b 563 742 332 618 419 742 b 783 486 704 742 783 615 b 554 240 783 353 696 240 b 332 483 415 240 332 354 z "},"Ó":{"ha":1117,"x_min":0,"x_max":0,"o":"m 551 -7 b 1053 482 846 -7 1053 192 b 569 989 1053 765 858 989 b 63 476 276 989 63 767 b 551 -7 63 196 265 -7 z m 332 483 b 563 742 332 618 419 742 b 783 486 704 742 783 615 b 554 240 783 353 696 240 b 332 483 415 240 332 354 z "},"Ô":{"ha":1117,"x_min":0,"x_max":0,"o":"m 551 -7 b 1053 482 846 -7 1053 192 b 569 989 1053 765 858 989 b 63 476 276 989 63 767 b 551 -7 63 196 265 -7 z m 332 483 b 563 742 332 618 419 742 b 783 486 704 742 783 615 b 554 240 783 353 696 240 b 332 483 415 240 332 354 z "},"Õ":{"ha":1117,"x_min":0,"x_max":0,"o":"m 551 -7 b 1053 482 846 -7 1053 192 b 569 989 1053 765 858 989 b 63 476 276 989 63 767 b 551 -7 63 196 265 -7 z m 332 483 b 563 742 332 618 419 742 b 783 486 704 742 783 615 b 554 240 783 353 696 240 b 332 483 415 240 332 354 z "},"Ö":{"ha":1117,"x_min":0,"x_max":0,"o":"m 551 -7 b 1053 482 846 -7 1053 192 b 569 989 1053 765 858 989 b 63 476 276 989 63 767 b 551 -7 63 196 265 -7 z m 332 483 b 563 742 332 618 419 742 b 783 486 704 742 783 615 b 554 240 783 353 696 240 b 332 483 415 240 332 354 z "},"Ø":{"ha":1117,"x_min":0,"x_max":0,"o":"m 551 -7 b 1053 482 846 -7 1053 192 b 569 989 1053 765 858 989 b 63 476 276 989 63 767 b 551 -7 63 196 265 -7 z m 332 483 b 563 742 332 618 419 742 b 783 486 704 742 783 615 b 554 240 783 353 696 240 b 332 483 415 240 332 354 z "},"P":{"ha":882,"x_min":0,"x_max":0,"o":"m 160 4 b 189 0 169 1 181 0 b 319 90 240 0 319 29 b 318 101 319 94 318 99 b 304 244 311 149 307 197 b 811 518 463 246 729 296 b 833 640 825 557 833 596 b 340 993 833 954 490 993 b 242 989 319 993 279 993 b 146 951 206 985 163 976 b 139 939 143 949 140 943 b 138 929 139 936 139 933 b 100 406 110 740 100 597 b 114 57 100 293 101 169 b 160 4 117 32 133 8 z m 303 472 b 325 767 307 571 314 669 l 335 767 b 607 682 403 767 578 753 b 614 643 613 671 614 658 b 304 472 614 503 410 472 z "},"Q":{"ha":1118,"x_min":0,"x_max":0,"o":"m 679 6 l 751 -126 b 775 -146 757 -139 768 -143 b 796 -149 783 -149 790 -149 b 925 -87 833 -149 897 -115 b 944 -25 944 -64 944 -53 b 943 -17 944 -22 943 -21 b 935 -1 940 -12 938 -7 b 911 43 929 13 921 28 b 881 100 900 64 889 86 b 1053 482 981 183 1053 315 b 569 989 1053 765 858 989 b 63 476 276 989 63 767 b 551 -7 63 194 264 -7 b 679 6 594 -7 638 -3 z m 565 218 l 553 218 b 282 476 425 218 282 288 b 571 764 282 676 436 764 b 650 754 597 764 624 761 b 836 481 749 725 836 621 b 771 304 836 410 813 349 b 683 476 743 361 713 419 b 639 568 668 507 654 539 b 582 600 624 594 601 600 b 500 574 563 600 529 589 b 443 485 474 557 443 528 b 450 453 443 472 447 461 b 565 218 485 374 526 294 z "},"R":{"ha":896,"x_min":0,"x_max":0,"o":"m 135 4 b 169 0 149 1 160 0 b 256 17 189 0 222 4 b 319 90 281 28 319 49 b 318 101 319 94 318 99 b 304 244 311 149 307 197 b 390 253 329 244 354 247 b 564 17 428 154 493 68 b 611 -1 576 8 596 -1 b 760 131 651 -1 760 54 b 743 176 760 150 753 165 b 629 319 696 218 651 258 b 835 643 729 374 835 474 b 321 993 835 953 474 993 b 217 989 301 993 258 993 b 111 939 183 985 124 976 b 110 929 111 936 111 933 b 72 406 82 740 72 597 b 86 57 72 293 74 169 b 135 4 89 29 106 8 z m 303 472 b 325 767 307 571 314 669 l 335 767 b 607 682 403 767 578 753 b 614 643 613 671 614 658 b 304 472 614 503 410 472 z "},"S":{"ha":904,"x_min":0,"x_max":0,"o":"m 260 290 b 260 301 260 294 260 299 b 258 313 260 306 258 310 b 246 335 256 321 253 329 b 219 350 239 344 228 349 b 194 354 211 353 201 354 b 67 243 135 354 67 307 b 418 -19 67 60 258 -19 b 829 306 614 -19 829 86 b 633 568 829 461 717 531 b 489 617 586 588 538 601 b 326 692 442 629 363 656 b 317 715 319 701 317 710 b 329 732 317 718 318 724 b 456 763 354 753 425 763 b 593 735 494 763 561 756 b 615 710 603 728 610 718 b 633 675 622 699 628 686 b 710 625 647 649 667 625 b 825 753 757 625 825 668 b 801 831 825 783 814 810 b 449 989 722 958 557 989 b 97 715 288 989 97 897 b 363 422 97 539 239 467 b 540 364 428 399 492 382 b 610 307 561 356 610 333 b 410 201 610 228 469 201 b 260 290 349 201 268 219 z "},"T":{"ha":728,"x_min":0,"x_max":0,"o":"m 254 761 b 256 406 253 643 256 525 b 251 175 256 329 254 251 b 244 63 250 139 244 99 b 264 25 244 42 256 32 b 299 11 274 18 286 14 b 357 3 322 4 349 3 b 453 32 386 3 435 7 b 463 64 457 39 463 49 b 472 758 463 294 468 526 b 621 763 522 758 572 758 b 661 772 638 764 651 767 b 701 876 690 793 701 840 b 631 989 701 931 682 989 b 453 985 571 989 511 985 b 93 989 332 985 213 989 b 25 872 42 989 25 921 b 93 763 25 826 47 763 b 254 761 147 763 200 761 z "},"U":{"ha":1090,"x_min":0,"x_max":0,"o":"m 357 911 b 236 989 357 964 296 989 b 126 949 190 989 144 975 b 82 535 103 915 82 593 b 529 -26 82 256 204 -26 b 978 357 765 -26 918 144 b 1010 682 1007 460 1010 576 b 968 961 1010 740 1007 919 b 900 990 951 981 926 990 b 746 894 843 990 746 953 b 747 883 746 890 747 888 b 771 635 758 800 771 719 b 517 201 771 453 725 201 b 329 593 340 201 329 444 b 357 894 329 694 339 794 b 357 911 357 900 357 906 z "},"Ù":{"ha":1090,"x_min":0,"x_max":0,"o":"m 357 911 b 236 989 357 964 296 989 b 126 949 190 989 144 975 b 82 535 103 915 82 593 b 529 -26 82 256 204 -26 b 978 357 765 -26 918 144 b 1010 682 1007 460 1010 576 b 968 961 1010 740 1007 919 b 900 990 951 981 926 990 b 746 894 843 990 746 953 b 747 883 746 890 747 888 b 771 635 758 800 771 719 b 517 201 771 453 725 201 b 329 593 340 201 329 444 b 357 894 329 694 339 794 b 357 911 357 900 357 906 z "},"Ú":{"ha":1090,"x_min":0,"x_max":0,"o":"m 357 911 b 236 989 357 964 296 989 b 126 949 190 989 144 975 b 82 535 103 915 82 593 b 529 -26 82 256 204 -26 b 978 357 765 -26 918 144 b 1010 682 1007 460 1010 576 b 968 961 1010 740 1007 919 b 900 990 951 981 926 990 b 746 894 843 990 746 953 b 747 883 746 890 747 888 b 771 635 758 800 771 719 b 517 201 771 453 725 201 b 329 593 340 201 329 444 b 357 894 329 694 339 794 b 357 911 357 900 357 906 z "},"Û":{"ha":1090,"x_min":0,"x_max":0,"o":"m 357 911 b 236 989 357 964 296 989 b 126 949 190 989 144 975 b 82 535 103 915 82 593 b 529 -26 82 256 204 -26 b 978 357 765 -26 918 144 b 1010 682 1007 460 1010 576 b 968 961 1010 740 1007 919 b 900 990 951 981 926 990 b 746 894 843 990 746 953 b 747 883 746 890 747 888 b 771 635 758 800 771 719 b 517 201 771 453 725 201 b 329 593 340 201 329 444 b 357 894 329 694 339 794 b 357 911 357 900 357 906 z "},"Ü":{"ha":1090,"x_min":0,"x_max":0,"o":"m 357 911 b 236 989 357 964 296 989 b 126 949 190 989 144 975 b 82 535 103 915 82 593 b 529 -26 82 256 204 -26 b 978 357 765 -26 918 144 b 1010 682 1007 460 1010 576 b 968 961 1010 740 1007 919 b 900 990 951 981 926 990 b 746 894 843 990 746 953 b 747 883 746 890 747 888 b 771 635 758 800 771 719 b 517 201 771 453 725 201 b 329 593 340 201 329 444 b 357 894 329 694 339 794 b 357 911 357 900 357 906 z "},"V":{"ha":968,"x_min":0,"x_max":0,"o":"m 461 321 b 386 510 433 381 408 444 b 314 733 360 583 338 660 b 281 843 304 767 293 806 b 243 949 268 881 256 918 b 171 989 228 982 190 989 b 96 969 157 989 124 983 b 58 944 82 964 68 956 b 38 896 47 933 38 917 b 40 879 38 889 39 883 b 382 44 96 661 233 188 b 483 1 413 17 447 1 b 576 46 518 1 550 14 b 888 739 693 182 828 550 b 913 818 893 756 904 786 b 931 904 922 849 931 883 b 907 950 931 926 918 942 b 783 986 876 971 819 986 b 713 963 763 986 735 983 b 697 935 704 956 700 947 b 461 321 640 713 558 515 z "},"W":{"ha":1264,"x_min":0,"x_max":0,"o":"m 413 311 b 307 717 365 439 335 576 b 278 864 297 767 288 815 b 265 929 274 886 271 910 b 176 986 256 972 217 986 b 68 949 144 986 93 971 b 50 903 60 939 50 924 b 51 894 50 900 50 897 l 51 889 b 185 299 90 689 125 489 b 411 6 219 188 296 6 b 497 44 447 6 469 22 b 621 236 558 96 590 158 b 643 185 628 219 635 201 b 815 11 672 110 724 11 b 1026 192 901 11 983 101 b 1111 425 1061 265 1089 343 b 1217 882 1151 574 1183 729 b 1218 899 1218 888 1218 894 b 1090 982 1218 960 1140 982 b 1042 972 1076 982 1058 981 b 1000 924 1025 965 1007 951 b 972 797 989 882 981 839 b 917 536 954 711 939 622 b 836 301 894 454 869 375 b 790 419 817 338 803 378 b 753 572 775 468 764 521 b 732 663 747 601 742 633 b 706 706 726 682 717 694 b 618 735 681 728 644 735 b 519 675 572 735 539 719 b 486 575 507 643 496 610 b 461 475 478 542 469 508 b 413 311 449 417 435 361 z "},"X":{"ha":953,"x_min":0,"x_max":0,"o":"m 454 303 b 633 94 510 229 569 157 b 676 51 644 85 660 68 b 722 13 693 38 710 21 b 750 3 732 6 740 3 b 878 139 790 3 878 68 b 872 168 878 150 875 160 b 861 186 868 175 865 182 b 856 192 860 188 857 190 b 849 197 854 193 851 194 b 594 482 756 276 674 376 b 790 706 657 560 724 633 b 894 811 825 742 860 774 b 910 849 903 818 910 829 b 772 986 910 922 811 986 b 743 972 758 986 753 982 b 461 669 644 881 551 776 b 353 828 435 707 393 768 b 228 978 306 893 257 957 b 190 989 215 988 201 989 b 56 863 156 989 56 936 b 63 835 56 851 58 842 b 71 819 64 828 68 824 b 160 713 101 783 131 750 b 318 489 214 640 265 564 b 156 274 263 418 210 343 b 67 168 126 236 96 204 b 51 124 61 158 51 143 b 90 43 51 90 71 63 b 153 6 111 25 136 11 b 189 -1 163 1 176 -1 b 235 21 207 -1 219 6 b 351 164 271 58 313 111 b 454 303 386 211 422 261 z "},"Y":{"ha":885,"x_min":0,"x_max":0,"o":"m 303 372 b 318 67 300 274 303 165 b 431 0 326 14 386 0 b 488 8 442 0 465 1 b 521 24 499 11 511 15 b 539 63 529 32 539 43 b 532 139 539 88 535 114 b 521 318 526 199 521 258 b 522 375 521 336 521 356 b 850 853 679 443 781 674 b 854 875 853 860 854 867 b 717 986 854 940 776 986 b 653 950 696 986 668 981 b 549 721 629 900 592 804 b 413 574 503 636 456 574 b 317 710 379 574 347 628 b 254 921 288 788 267 876 b 161 983 239 974 186 983 b 38 893 107 983 38 957 b 39 876 38 888 38 882 b 303 372 81 692 150 450 z "},"Ý":{"ha":885,"x_min":0,"x_max":0,"o":"m 303 372 b 318 67 300 274 303 165 b 431 0 326 14 386 0 b 488 8 442 0 465 1 b 521 24 499 11 511 15 b 539 63 529 32 539 43 b 532 139 539 88 535 114 b 521 318 526 199 521 258 b 522 375 521 336 521 356 b 850 853 679 443 781 674 b 854 875 853 860 854 867 b 717 986 854 940 776 986 b 653 950 696 986 668 981 b 549 721 629 900 592 804 b 413 574 503 636 456 574 b 317 710 379 574 347 628 b 254 921 288 788 267 876 b 161 983 239 974 186 983 b 38 893 107 983 38 957 b 39 876 38 888 38 882 b 303 372 81 692 150 450 z "},"Ÿ":{"ha":885,"x_min":0,"x_max":0,"o":"m 303 372 b 318 67 300 274 303 165 b 431 0 326 14 386 0 b 488 8 442 0 465 1 b 521 24 499 11 511 15 b 539 63 529 32 539 43 b 532 139 539 88 535 114 b 521 318 526 199 521 258 b 522 375 521 336 521 356 b 850 853 679 443 781 674 b 854 875 853 860 854 867 b 717 986 854 940 776 986 b 653 950 696 986 668 981 b 549 721 629 900 592 804 b 413 574 503 636 456 574 b 317 710 379 574 347 628 b 254 921 288 788 267 876 b 161 983 239 974 186 983 b 38 893 107 983 38 957 b 39 876 38 888 38 882 b 303 372 81 692 150 450 z "},"Z":{"ha":839,"x_min":0,"x_max":0,"o":"m 350 226 b 439 335 378 263 408 299 b 649 593 508 421 579 506 b 682 635 658 607 671 621 b 776 831 721 686 776 763 b 581 981 776 946 675 975 b 458 985 539 985 494 985 b 208 979 375 985 292 979 b 188 981 200 979 193 981 b 124 940 154 981 139 974 b 111 868 114 917 111 892 b 169 754 111 828 122 758 l 206 754 b 457 761 289 754 374 761 b 499 760 471 761 485 761 b 281 494 428 669 356 582 b 46 131 221 424 46 217 b 185 3 46 46 110 7 b 444 1 269 -1 357 1 b 701 0 529 1 615 0 b 774 128 757 0 774 78 b 675 229 774 207 747 229 b 350 226 567 229 457 226 z "},"[":{"ha":561,"x_min":0,"x_max":0,"o":"m 324 -29 l 324 -15 b 332 381 324 117 329 247 b 344 769 335 510 335 640 l 388 769 b 419 772 399 769 408 769 b 507 878 468 778 507 831 b 368 997 507 965 447 997 b 315 996 351 997 333 996 b 274 994 301 996 288 996 b 131 838 178 994 138 922 b 111 347 115 675 115 511 b 104 3 108 233 104 118 b 393 -256 104 -236 189 -256 b 440 -254 408 -256 425 -257 b 532 -144 476 -247 532 -214 b 421 -29 532 -60 461 -29 b 324 -29 388 -29 356 -31 z "},"\\":{"ha":621,"x_min":0,"x_max":0,"o":"m 365 -104 b 372 -132 368 -112 369 -122 b 476 -212 386 -179 426 -212 b 586 -99 519 -212 586 -179 b 585 -75 586 -90 586 -82 b 536 119 572 -8 553 56 b 438 467 504 235 471 351 b 363 696 415 544 389 621 b 319 815 357 713 338 765 b 294 886 310 842 301 865 b 288 911 292 896 289 904 b 285 917 286 913 286 915 b 175 1031 285 999 217 1031 b 63 913 132 1031 63 997 b 74 850 63 890 68 868 b 93 797 79 831 88 814 b 204 481 132 693 169 588 b 293 176 236 381 264 279 b 365 -104 319 85 347 -8 z "},"]":{"ha":561,"x_min":0,"x_max":0,"o":"m 239 -29 b 161 -29 217 -29 189 -28 b 71 -54 131 -31 94 -35 b 31 -142 51 -72 31 -101 b 142 -256 31 -225 100 -253 l 192 -256 b 257 -256 211 -256 233 -257 b 442 -147 338 -250 407 -229 b 457 -17 457 -106 457 -57 b 450 396 457 121 453 258 b 444 646 449 454 449 551 b 425 885 442 739 436 833 b 279 996 404 968 357 989 b 200 997 250 997 219 997 b 56 885 124 997 56 971 b 150 769 56 819 108 771 l 218 769 b 232 347 229 629 229 488 b 239 -11 235 228 239 107 z "},"_":{"ha":764,"x_min":0,"x_max":0,"o":"m 69 -199 b 219 -190 121 -199 169 -193 b 382 -185 274 -186 329 -185 b 694 -192 486 -185 590 -192 b 763 -60 738 -192 763 -93 b 733 11 763 -36 756 -3 b 550 22 719 18 633 21 b 357 24 464 24 376 24 b 111 10 275 24 193 15 l 104 10 b 76 11 96 10 86 11 b -1 -100 18 11 -1 -50 b 69 -199 -1 -157 25 -199 z "},"a":{"ha":963,"x_min":0,"x_max":0,"o":"m 636 178 b 661 89 643 154 651 121 b 713 -4 674 51 690 8 b 749 -12 725 -11 740 -12 b 846 8 767 -12 808 -6 b 896 39 863 17 882 26 b 924 92 910 49 924 67 b 919 113 924 100 922 107 b 744 628 853 283 806 458 b 592 946 707 731 651 863 b 494 985 567 979 524 985 b 376 924 442 985 401 972 b 50 110 232 672 113 394 b 46 89 50 108 47 97 b 42 74 44 83 43 78 b 40 61 40 67 40 63 b 196 -7 40 0 151 -7 b 240 -6 206 -7 224 -7 b 288 17 257 -3 276 3 b 292 25 289 19 290 22 b 294 33 293 28 293 31 b 300 51 296 39 297 44 b 310 104 303 67 306 86 b 322 178 314 132 318 160 z m 397 404 b 483 617 425 476 453 547 b 569 404 513 546 542 476 z "},"à":{"ha":963,"x_min":0,"x_max":0,"o":"m 636 178 b 661 89 643 154 651 121 b 713 -4 674 51 690 8 b 749 -12 725 -11 740 -12 b 846 8 767 -12 808 -6 b 896 39 863 17 882 26 b 924 92 910 49 924 67 b 919 113 924 100 922 107 b 744 628 853 283 806 458 b 592 946 707 731 651 863 b 494 985 567 979 524 985 b 376 924 442 985 401 972 b 50 110 232 672 113 394 b 46 89 50 108 47 97 b 42 74 44 83 43 78 b 40 61 40 67 40 63 b 196 -7 40 0 151 -7 b 240 -6 206 -7 224 -7 b 288 17 257 -3 276 3 b 292 25 289 19 290 22 b 294 33 293 28 293 31 b 300 51 296 39 297 44 b 310 104 303 67 306 86 b 322 178 314 132 318 160 z m 397 404 b 483 617 425 476 453 547 b 569 404 513 546 542 476 z "},"á":{"ha":963,"x_min":0,"x_max":0,"o":"m 636 178 b 661 89 643 154 651 121 b 713 -4 674 51 690 8 b 749 -12 725 -11 740 -12 b 846 8 767 -12 808 -6 b 896 39 863 17 882 26 b 924 92 910 49 924 67 b 919 113 924 100 922 107 b 744 628 853 283 806 458 b 592 946 707 731 651 863 b 494 985 567 979 524 985 b 376 924 442 985 401 972 b 50 110 232 672 113 394 b 46 89 50 108 47 97 b 42 74 44 83 43 78 b 40 61 40 67 40 63 b 196 -7 40 0 151 -7 b 240 -6 206 -7 224 -7 b 288 17 257 -3 276 3 b 292 25 289 19 290 22 b 294 33 293 28 293 31 b 300 51 296 39 297 44 b 310 104 303 67 306 86 b 322 178 314 132 318 160 z m 397 404 b 483 617 425 476 453 547 b 569 404 513 546 542 476 z "},"â":{"ha":963,"x_min":0,"x_max":0,"o":"m 636 178 b 661 89 643 154 651 121 b 713 -4 674 51 690 8 b 749 -12 725 -11 740 -12 b 846 8 767 -12 808 -6 b 896 39 863 17 882 26 b 924 92 910 49 924 67 b 919 113 924 100 922 107 b 744 628 853 283 806 458 b 592 946 707 731 651 863 b 494 985 567 979 524 985 b 376 924 442 985 401 972 b 50 110 232 672 113 394 b 46 89 50 108 47 97 b 42 74 44 83 43 78 b 40 61 40 67 40 63 b 196 -7 40 0 151 -7 b 240 -6 206 -7 224 -7 b 288 17 257 -3 276 3 b 292 25 289 19 290 22 b 294 33 293 28 293 31 b 300 51 296 39 297 44 b 310 104 303 67 306 86 b 322 178 314 132 318 160 z m 397 404 b 483 617 425 476 453 547 b 569 404 513 546 542 476 z "},"ã":{"ha":963,"x_min":0,"x_max":0,"o":"m 636 178 b 661 89 643 154 651 121 b 713 -4 674 51 690 8 b 749 -12 725 -11 740 -12 b 846 8 767 -12 808 -6 b 896 39 863 17 882 26 b 924 92 910 49 924 67 b 919 113 924 100 922 107 b 744 628 853 283 806 458 b 592 946 707 731 651 863 b 494 985 567 979 524 985 b 376 924 442 985 401 972 b 50 110 232 672 113 394 b 46 89 50 108 47 97 b 42 74 44 83 43 78 b 40 61 40 67 40 63 b 196 -7 40 0 151 -7 b 240 -6 206 -7 224 -7 b 288 17 257 -3 276 3 b 292 25 289 19 290 22 b 294 33 293 28 293 31 b 300 51 296 39 297 44 b 310 104 303 67 306 86 b 322 178 314 132 318 160 z m 397 404 b 483 617 425 476 453 547 b 569 404 513 546 542 476 z "},"ä":{"ha":963,"x_min":0,"x_max":0,"o":"m 636 178 b 661 89 643 154 651 121 b 713 -4 674 51 690 8 b 749 -12 725 -11 740 -12 b 846 8 767 -12 808 -6 b 896 39 863 17 882 26 b 924 92 910 49 924 67 b 919 113 924 100 922 107 b 744 628 853 283 806 458 b 592 946 707 731 651 863 b 494 985 567 979 524 985 b 376 924 442 985 401 972 b 50 110 232 672 113 394 b 46 89 50 108 47 97 b 42 74 44 83 43 78 b 40 61 40 67 40 63 b 196 -7 40 0 151 -7 b 240 -6 206 -7 224 -7 b 288 17 257 -3 276 3 b 292 25 289 19 290 22 b 294 33 293 28 293 31 b 300 51 296 39 297 44 b 310 104 303 67 306 86 b 322 178 314 132 318 160 z m 397 404 b 483 617 425 476 453 547 b 569 404 513 546 542 476 z "},"å":{"ha":963,"x_min":0,"x_max":0,"o":"m 636 178 b 661 89 643 154 651 121 b 713 -4 674 51 690 8 b 749 -12 725 -11 740 -12 b 846 8 767 -12 808 -6 b 896 39 863 17 882 26 b 924 92 910 49 924 67 b 919 113 924 100 922 107 b 744 628 853 283 806 458 b 592 946 707 731 651 863 b 494 985 567 979 524 985 b 376 924 442 985 401 972 b 50 110 232 672 113 394 b 46 89 50 108 47 97 b 42 74 44 83 43 78 b 40 61 40 67 40 63 b 196 -7 40 0 151 -7 b 240 -6 206 -7 224 -7 b 288 17 257 -3 276 3 b 292 25 289 19 290 22 b 294 33 293 28 293 31 b 300 51 296 39 297 44 b 310 104 303 67 306 86 b 322 178 314 132 318 160 z m 397 404 b 483 617 425 476 453 547 b 569 404 513 546 542 476 z "},"b":{"ha":915,"x_min":0,"x_max":0,"o":"m 711 494 b 818 710 763 542 818 619 b 781 844 818 760 804 807 b 417 1008 696 979 533 1008 b 306 1001 379 1008 343 1007 b 250 993 288 1000 267 993 l 243 993 b 235 996 240 994 238 994 b 225 999 232 996 229 997 l 214 999 b 103 871 163 999 103 961 b 104 822 103 856 104 839 l 104 814 b 90 432 99 686 90 560 b 110 124 90 329 96 226 b 139 44 114 92 119 69 b 392 -17 189 -15 335 -17 b 660 28 481 -17 574 -8 b 853 275 738 58 853 132 b 711 494 853 381 776 458 z m 319 213 b 313 329 315 250 314 289 b 468 335 364 332 415 335 b 578 310 499 335 554 333 b 590 283 586 303 590 293 b 569 247 590 271 585 260 b 388 208 526 217 439 208 b 319 213 364 208 343 210 z m 311 504 b 322 776 314 594 318 686 b 399 783 347 781 372 783 b 567 688 456 783 567 760 b 565 678 567 683 567 679 b 311 504 546 574 399 518 z "},"c":{"ha":1003,"x_min":0,"x_max":0,"o":"m 540 -24 b 899 138 665 -24 800 26 b 931 179 907 146 919 161 b 950 236 940 193 950 215 b 815 369 950 311 850 369 b 782 354 801 369 792 365 b 532 218 706 271 631 218 b 303 463 415 218 303 296 b 549 775 303 636 421 775 b 701 697 603 775 663 750 b 719 669 708 686 714 676 b 797 619 740 640 757 619 b 931 719 850 619 931 660 b 925 749 931 732 928 742 b 547 992 854 932 682 992 b 58 482 263 992 58 756 b 540 -24 58 207 256 -24 z "},"ç":{"ha":1003,"x_min":0,"x_max":0,"o":"m 540 -24 b 899 138 665 -24 800 26 b 931 179 907 146 919 161 b 950 236 940 193 950 215 b 815 369 950 311 850 369 b 782 354 801 369 792 365 b 532 218 706 271 631 218 b 303 463 415 218 303 296 b 549 775 303 636 421 775 b 701 697 603 775 663 750 b 719 669 708 686 714 676 b 797 619 740 640 757 619 b 931 719 850 619 931 660 b 925 749 931 732 928 742 b 547 992 854 932 682 992 b 58 482 263 992 58 756 b 540 -24 58 207 256 -24 z "},"d":{"ha":1021,"x_min":0,"x_max":0,"o":"m 108 57 b 215 -22 129 -3 174 -22 b 251 -18 228 -22 240 -18 b 554 21 354 -18 453 -11 b 964 517 726 75 964 219 b 863 807 964 629 924 733 b 389 986 740 957 543 986 b 167 958 343 986 210 986 b 104 826 128 933 107 872 b 100 768 101 808 101 789 b 93 324 94 621 93 472 b 108 57 93 269 93 99 z m 314 208 b 310 440 311 285 310 363 b 318 758 310 546 313 653 l 346 758 b 719 499 481 758 719 713 b 668 350 719 440 700 390 b 314 208 588 242 432 213 z "},"e":{"ha":767,"x_min":0,"x_max":0,"o":"m 308 574 b 336 761 315 636 326 699 b 453 765 374 764 414 765 b 554 763 467 765 511 764 b 650 767 594 763 639 763 b 701 890 689 782 701 853 b 663 982 701 939 686 968 b 628 992 651 988 640 990 b 589 993 615 993 603 993 b 382 990 554 993 467 993 b 189 963 300 986 214 979 b 133 883 167 950 142 921 b 79 407 106 739 79 558 b 165 42 79 324 96 93 b 382 -21 229 -4 313 -21 b 693 39 440 -21 657 0 b 715 106 708 56 715 83 b 633 242 715 161 688 242 l 622 242 b 385 204 543 232 464 204 b 321 213 363 204 342 206 b 300 347 310 256 303 301 l 510 347 b 579 469 560 347 579 425 b 511 574 579 518 557 574 z "},"è":{"ha":767,"x_min":0,"x_max":0,"o":"m 308 574 b 336 761 315 636 326 699 b 453 765 374 764 414 765 b 554 763 467 765 511 764 b 650 767 594 763 639 763 b 701 890 689 782 701 853 b 663 982 701 939 686 968 b 628 992 651 988 640 990 b 589 993 615 993 603 993 b 382 990 554 993 467 993 b 189 963 300 986 214 979 b 133 883 167 950 142 921 b 79 407 106 739 79 558 b 165 42 79 324 96 93 b 382 -21 229 -4 313 -21 b 693 39 440 -21 657 0 b 715 106 708 56 715 83 b 633 242 715 161 688 242 l 622 242 b 385 204 543 232 464 204 b 321 213 363 204 342 206 b 300 347 310 256 303 301 l 510 347 b 579 469 560 347 579 425 b 511 574 579 518 557 574 z "},"é":{"ha":767,"x_min":0,"x_max":0,"o":"m 308 574 b 336 761 315 636 326 699 b 453 765 374 764 414 765 b 554 763 467 765 511 764 b 650 767 594 763 639 763 b 701 890 689 782 701 853 b 663 982 701 939 686 968 b 628 992 651 988 640 990 b 589 993 615 993 603 993 b 382 990 554 993 467 993 b 189 963 300 986 214 979 b 133 883 167 950 142 921 b 79 407 106 739 79 558 b 165 42 79 324 96 93 b 382 -21 229 -4 313 -21 b 693 39 440 -21 657 0 b 715 106 708 56 715 83 b 633 242 715 161 688 242 l 622 242 b 385 204 543 232 464 204 b 321 213 363 204 342 206 b 300 347 310 256 303 301 l 510 347 b 579 469 560 347 579 425 b 511 574 579 518 557 574 z "},"ê":{"ha":767,"x_min":0,"x_max":0,"o":"m 308 574 b 336 761 315 636 326 699 b 453 765 374 764 414 765 b 554 763 467 765 511 764 b 650 767 594 763 639 763 b 701 890 689 782 701 853 b 663 982 701 939 686 968 b 628 992 651 988 640 990 b 589 993 615 993 603 993 b 382 990 554 993 467 993 b 189 963 300 986 214 979 b 133 883 167 950 142 921 b 79 407 106 739 79 558 b 165 42 79 324 96 93 b 382 -21 229 -4 313 -21 b 693 39 440 -21 657 0 b 715 106 708 56 715 83 b 633 242 715 161 688 242 l 622 242 b 385 204 543 232 464 204 b 321 213 363 204 342 206 b 300 347 310 256 303 301 l 510 347 b 579 469 560 347 579 425 b 511 574 579 518 557 574 z "},"ë":{"ha":767,"x_min":0,"x_max":0,"o":"m 308 574 b 336 761 315 636 326 699 b 453 765 374 764 414 765 b 554 763 467 765 511 764 b 650 767 594 763 639 763 b 701 890 689 782 701 853 b 663 982 701 939 686 968 b 628 992 651 988 640 990 b 589 993 615 993 603 993 b 382 990 554 993 467 993 b 189 963 300 986 214 979 b 133 883 167 950 142 921 b 79 407 106 739 79 558 b 165 42 79 324 96 93 b 382 -21 229 -4 313 -21 b 693 39 440 -21 657 0 b 715 106 708 56 715 83 b 633 242 715 161 688 242 l 622 242 b 385 204 543 232 464 204 b 321 213 363 204 342 206 b 300 347 310 256 303 301 l 510 347 b 579 469 560 347 579 425 b 511 574 579 518 557 574 z "},"f":{"ha":715,"x_min":0,"x_max":0,"o":"m 338 96 l 338 103 b 311 360 321 186 315 272 b 531 365 385 364 457 365 b 596 496 583 365 596 457 b 589 551 596 511 594 532 b 550 590 582 571 569 590 b 311 585 469 590 390 590 b 318 761 313 644 315 703 l 333 761 b 583 743 418 761 500 754 l 589 743 b 669 886 644 743 669 836 b 651 947 669 908 663 932 b 400 989 617 986 453 989 b 288 988 381 989 335 989 b 179 978 243 986 194 983 b 110 894 154 968 118 942 b 101 804 106 865 103 835 b 97 717 100 774 99 744 b 90 447 94 626 90 536 b 124 47 90 332 99 158 b 204 -1 133 11 169 -1 b 339 89 251 -1 339 29 b 338 96 339 90 339 93 z "},"g":{"ha":1015,"x_min":0,"x_max":0,"o":"m 731 333 b 535 218 718 256 603 218 b 304 465 414 218 304 293 b 551 775 304 643 422 775 b 704 690 613 775 672 742 b 728 658 713 679 719 669 b 792 619 743 638 763 619 b 869 642 808 619 842 626 b 931 718 900 656 931 682 b 928 740 931 726 929 733 b 922 756 926 744 924 750 b 543 992 846 936 681 992 b 58 483 263 992 58 756 b 536 -24 58 211 254 -24 b 950 413 738 -24 950 85 b 931 497 950 442 944 472 b 714 575 885 568 769 575 b 503 554 661 575 553 572 b 464 453 468 544 464 482 b 476 372 464 431 467 399 b 531 319 485 344 501 319 b 543 322 535 319 539 321 b 668 339 583 332 626 339 b 731 333 689 339 710 338 z "},"h":{"ha":956,"x_min":0,"x_max":0,"o":"m 119 28 b 194 -1 139 6 168 -1 b 346 101 251 -1 346 32 b 344 115 346 107 344 113 b 328 328 335 188 329 257 b 635 336 429 328 532 331 b 635 64 633 246 635 156 b 647 21 635 51 640 33 b 718 -7 664 0 697 -7 b 875 171 850 -7 875 65 b 869 358 875 233 869 296 b 876 501 869 406 874 454 b 888 797 882 600 888 699 b 886 875 888 808 888 843 b 875 942 885 899 881 919 b 865 956 872 946 869 951 b 757 988 838 979 788 988 b 654 922 717 988 664 969 b 647 838 649 894 649 865 b 638 585 643 753 640 668 b 335 579 536 581 435 579 b 354 790 339 649 346 719 b 369 897 360 825 365 863 l 369 901 b 371 906 371 903 371 904 l 371 911 b 236 993 371 975 286 993 b 124 929 197 993 138 981 b 99 751 108 874 104 810 b 86 410 89 639 86 525 b 94 146 86 322 89 235 b 100 65 96 119 96 92 b 119 28 103 51 108 38 z "},"i":{"ha":432,"x_min":0,"x_max":0,"o":"m 367 106 b 365 110 365 107 365 108 b 349 374 351 196 349 285 b 394 889 349 557 364 710 b 396 904 394 894 396 900 b 258 985 396 967 307 985 b 140 921 219 985 156 974 b 99 403 101 778 99 550 b 108 138 99 315 103 226 b 114 60 110 113 110 86 b 211 -7 125 7 160 -7 b 368 96 263 -7 368 17 b 367 106 368 100 367 104 z "},"ì":{"ha":432,"x_min":0,"x_max":0,"o":"m 367 106 b 365 110 365 107 365 108 b 349 374 351 196 349 285 b 394 889 349 557 364 710 b 396 904 394 894 396 900 b 258 985 396 967 307 985 b 140 921 219 985 156 974 b 99 403 101 778 99 550 b 108 138 99 315 103 226 b 114 60 110 113 110 86 b 211 -7 125 7 160 -7 b 368 96 263 -7 368 17 b 367 106 368 100 367 104 z "},"í":{"ha":432,"x_min":0,"x_max":0,"o":"m 367 106 b 365 110 365 107 365 108 b 349 374 351 196 349 285 b 394 889 349 557 364 710 b 396 904 394 894 396 900 b 258 985 396 967 307 985 b 140 921 219 985 156 974 b 99 403 101 778 99 550 b 108 138 99 315 103 226 b 114 60 110 113 110 86 b 211 -7 125 7 160 -7 b 368 96 263 -7 368 17 b 367 106 368 100 367 104 z "},"î":{"ha":432,"x_min":0,"x_max":0,"o":"m 367 106 b 365 110 365 107 365 108 b 349 374 351 196 349 285 b 394 889 349 557 364 710 b 396 904 394 894 396 900 b 258 985 396 967 307 985 b 140 921 219 985 156 974 b 99 403 101 778 99 550 b 108 138 99 315 103 226 b 114 60 110 113 110 86 b 211 -7 125 7 160 -7 b 368 96 263 -7 368 17 b 367 106 368 100 367 104 z "},"ï":{"ha":432,"x_min":0,"x_max":0,"o":"m 367 106 b 365 110 365 107 365 108 b 349 374 351 196 349 285 b 394 889 349 557 364 710 b 396 904 394 894 396 900 b 258 985 396 967 307 985 b 140 921 219 985 156 974 b 99 403 101 778 99 550 b 108 138 99 315 103 226 b 114 60 110 113 110 86 b 211 -7 125 7 160 -7 b 368 96 263 -7 368 17 b 367 106 368 100 367 104 z "},"j":{"ha":818,"x_min":0,"x_max":0,"o":"m 72 140 b 381 -21 138 15 281 -21 b 697 175 492 -21 636 25 b 736 418 728 250 736 335 b 713 925 736 586 713 756 b 693 964 713 944 703 957 b 661 979 685 971 672 976 b 604 988 640 986 615 988 b 511 958 575 988 533 981 b 493 915 501 950 493 935 b 510 460 493 764 510 613 b 375 204 510 299 506 204 b 275 235 344 204 294 213 b 258 290 263 250 260 264 b 163 356 257 344 207 356 b 42 271 106 356 42 338 b 72 140 42 233 57 172 z "},"k":{"ha":908,"x_min":0,"x_max":0,"o":"m 303 15 b 326 50 315 24 326 33 b 324 96 326 65 324 82 b 313 264 319 149 313 211 b 453 401 360 307 407 354 b 614 108 506 303 557 203 b 642 65 624 94 632 79 b 710 1 656 38 674 1 b 861 118 756 1 861 60 b 854 142 861 129 857 138 b 768 282 826 188 796 235 b 611 571 715 376 663 475 b 751 731 657 622 706 676 b 824 814 775 758 801 785 b 838 856 831 822 838 835 b 715 983 838 922 750 983 b 675 968 703 983 688 981 b 551 829 633 924 592 875 b 304 567 468 739 388 651 l 304 603 b 318 917 304 708 308 814 l 318 924 b 299 961 318 943 308 956 b 267 976 289 969 278 974 b 208 985 244 983 219 985 b 108 925 168 985 118 968 b 103 876 106 911 104 893 b 92 564 93 772 92 668 l 92 503 b 108 106 93 369 100 238 b 115 38 110 82 113 57 b 160 0 119 15 139 3 b 203 -4 175 -4 194 -4 b 303 15 233 -4 275 1 z "},"l":{"ha":761,"x_min":0,"x_max":0,"o":"m 332 213 b 325 311 328 243 325 278 b 379 910 325 499 358 721 l 379 915 b 358 960 379 938 368 953 b 247 989 333 982 279 989 b 193 981 236 989 214 988 b 163 965 182 978 171 972 b 142 935 154 960 146 950 b 85 281 106 769 85 457 b 160 15 85 213 86 47 b 385 -22 228 -12 315 -22 b 704 39 442 -22 671 0 b 726 110 722 57 726 88 b 644 242 726 165 697 242 l 633 242 b 396 204 554 231 475 204 b 332 213 374 204 353 206 z "},"m":{"ha":1213,"x_min":0,"x_max":0,"o":"m 318 558 b 436 289 358 471 397 379 b 479 190 451 257 463 224 b 596 142 501 149 554 142 b 714 193 639 142 693 149 b 763 332 729 231 749 290 b 865 574 794 414 828 494 b 888 243 878 464 883 354 b 897 63 890 190 890 113 b 919 26 900 44 910 33 b 950 10 929 18 940 14 b 1011 1 974 3 999 1 b 1061 7 1025 1 1043 3 b 1111 40 1078 13 1099 22 b 1117 67 1115 47 1117 64 b 1124 458 1117 197 1124 328 b 1068 938 1124 590 1113 828 b 1043 965 1063 953 1051 960 b 944 985 1014 979 976 985 b 886 978 929 985 907 983 b 829 943 865 974 843 963 b 760 822 806 906 782 863 b 590 496 700 718 644 608 b 435 796 540 597 486 696 b 381 904 417 831 399 867 b 358 951 374 918 367 936 b 274 986 346 979 301 986 b 131 893 235 986 149 967 b 89 492 106 799 92 592 b 88 397 88 460 88 428 b 100 118 88 304 92 211 b 106 50 101 96 103 72 b 144 7 111 24 131 11 b 186 0 160 1 175 0 b 324 72 228 0 324 15 b 319 119 324 85 322 101 b 314 164 318 136 315 151 b 308 332 310 219 308 276 b 318 558 308 407 313 482 z "},"n":{"ha":1001,"x_min":0,"x_max":0,"o":"m 318 563 b 526 214 388 446 456 328 b 590 115 546 185 567 149 b 661 25 614 83 638 50 b 761 -6 689 -4 736 -6 b 821 0 776 -6 800 -6 b 879 32 842 4 864 14 b 893 65 885 40 892 50 b 901 274 900 133 900 206 b 907 707 907 418 907 563 l 907 919 b 899 957 907 929 906 944 b 808 992 881 985 839 992 b 708 961 778 992 732 982 b 688 919 699 954 688 940 b 669 408 688 749 675 578 b 574 572 636 461 604 515 b 463 779 536 640 500 711 b 369 947 433 838 401 892 b 365 956 367 951 367 954 b 358 963 363 958 360 960 b 292 985 336 981 315 985 b 204 965 271 985 236 979 b 132 890 174 954 140 931 b 111 731 122 839 118 783 b 88 269 96 578 88 425 b 92 71 88 204 86 136 b 193 3 99 17 144 3 b 257 13 206 3 233 6 b 311 74 285 24 311 40 b 318 563 311 236 308 400 z "},"ñ":{"ha":1001,"x_min":0,"x_max":0,"o":"m 318 563 b 526 214 388 446 456 328 b 590 115 546 185 567 149 b 661 25 614 83 638 50 b 761 -6 689 -4 736 -6 b 821 0 776 -6 800 -6 b 879 32 842 4 864 14 b 893 65 885 40 892 50 b 901 274 900 133 900 206 b 907 707 907 418 907 563 l 907 919 b 899 957 907 929 906 944 b 808 992 881 985 839 992 b 708 961 778 992 732 982 b 688 919 699 954 688 940 b 669 408 688 749 675 578 b 574 572 636 461 604 515 b 463 779 536 640 500 711 b 369 947 433 838 401 892 b 365 956 367 951 367 954 b 358 963 363 958 360 960 b 292 985 336 981 315 985 b 204 965 271 985 236 979 b 132 890 174 954 140 931 b 111 731 122 839 118 783 b 88 269 96 578 88 425 b 92 71 88 204 86 136 b 193 3 99 17 144 3 b 257 13 206 3 233 6 b 311 74 285 24 311 40 b 318 563 311 236 308 400 z "},"o":{"ha":1107,"x_min":0,"x_max":0,"o":"m 551 -7 b 1053 482 846 -7 1053 192 b 569 989 1053 765 858 989 b 63 476 276 989 63 767 b 551 -7 63 196 265 -7 z m 332 483 b 563 742 332 618 419 742 b 783 486 704 742 783 615 b 554 240 783 353 696 240 b 332 483 415 240 332 354 z "},"ò":{"ha":1107,"x_min":0,"x_max":0,"o":"m 551 -7 b 1053 482 846 -7 1053 192 b 569 989 1053 765 858 989 b 63 476 276 989 63 767 b 551 -7 63 196 265 -7 z m 332 483 b 563 742 332 618 419 742 b 783 486 704 742 783 615 b 554 240 783 353 696 240 b 332 483 415 240 332 354 z "},"ó":{"ha":1107,"x_min":0,"x_max":0,"o":"m 551 -7 b 1053 482 846 -7 1053 192 b 569 989 1053 765 858 989 b 63 476 276 989 63 767 b 551 -7 63 196 265 -7 z m 332 483 b 563 742 332 618 419 742 b 783 486 704 742 783 615 b 554 240 783 353 696 240 b 332 483 415 240 332 354 z "},"ô":{"ha":1107,"x_min":0,"x_max":0,"o":"m 551 -7 b 1053 482 846 -7 1053 192 b 569 989 1053 765 858 989 b 63 476 276 989 63 767 b 551 -7 63 196 265 -7 z m 332 483 b 563 742 332 618 419 742 b 783 486 704 742 783 615 b 554 240 783 353 696 240 b 332 483 415 240 332 354 z "},"õ":{"ha":1107,"x_min":0,"x_max":0,"o":"m 551 -7 b 1053 482 846 -7 1053 192 b 569 989 1053 765 858 989 b 63 476 276 989 63 767 b 551 -7 63 196 265 -7 z m 332 483 b 563 742 332 618 419 742 b 783 486 704 742 783 615 b 554 240 783 353 696 240 b 332 483 415 240 332 354 z "},"ö":{"ha":1107,"x_min":0,"x_max":0,"o":"m 551 -7 b 1053 482 846 -7 1053 192 b 569 989 1053 765 858 989 b 63 476 276 989 63 767 b 551 -7 63 196 265 -7 z m 332 483 b 563 742 332 618 419 742 b 783 486 704 742 783 615 b 554 240 783 353 696 240 b 332 483 415 240 332 354 z "},"ø":{"ha":1107,"x_min":0,"x_max":0,"o":"m 551 -7 b 1053 482 846 -7 1053 192 b 569 989 1053 765 858 989 b 63 476 276 989 63 767 b 551 -7 63 196 265 -7 z m 332 483 b 563 742 332 618 419 742 b 783 486 704 742 783 615 b 554 240 783 353 696 240 b 332 483 415 240 332 354 z "},"p":{"ha":872,"x_min":0,"x_max":0,"o":"m 149 4 b 178 0 160 1 169 0 b 308 90 229 0 308 28 b 307 101 308 94 307 99 b 293 244 300 149 296 197 b 800 518 453 246 718 296 b 822 640 814 557 822 596 b 329 993 822 954 479 993 b 231 989 308 993 268 993 b 135 951 194 985 153 976 b 128 939 132 949 129 943 b 126 929 128 936 128 933 b 89 406 99 740 89 597 b 103 57 89 293 90 169 b 149 4 106 32 122 8 z m 292 472 b 314 767 296 571 303 669 l 324 767 b 596 682 392 767 567 753 b 603 643 601 671 603 658 b 293 472 603 503 399 472 z "},"q":{"ha":1107,"x_min":0,"x_max":0,"o":"m 674 6 l 747 -126 b 769 -146 751 -139 763 -143 b 790 -149 778 -149 785 -149 b 919 -87 828 -149 892 -115 b 942 -36 931 -74 942 -57 b 939 -25 942 -31 940 -28 b 938 -17 939 -22 938 -21 b 929 -1 935 -12 932 -7 b 906 43 924 13 915 28 b 875 100 894 64 883 86 b 1047 482 975 183 1047 315 b 564 989 1047 765 853 989 b 58 476 269 989 58 768 b 546 -7 58 194 257 -7 b 674 6 589 -7 632 -3 z m 560 218 l 549 218 b 276 476 419 218 276 288 b 565 764 276 676 431 764 b 831 481 724 764 831 639 b 765 304 831 410 807 349 b 678 476 738 361 707 419 b 633 568 663 507 650 539 b 576 600 618 594 596 600 b 494 574 557 600 524 589 b 438 485 468 557 438 528 b 444 453 438 472 442 461 b 560 218 479 374 521 294 z "},"r":{"ha":879,"x_min":0,"x_max":0,"o":"m 303 472 b 325 767 307 571 314 669 l 335 767 b 607 682 403 767 578 753 b 614 643 613 671 614 658 b 304 472 614 503 410 472 z m 135 4 b 169 0 149 1 160 0 b 256 17 189 0 222 4 b 319 90 281 28 319 49 b 318 101 319 94 318 99 b 304 244 311 149 307 197 b 390 253 329 244 353 247 b 564 17 426 154 493 68 b 611 -1 576 8 596 -1 b 760 131 651 -1 760 54 b 743 176 760 150 753 165 b 629 319 696 218 651 258 b 835 643 729 374 835 474 b 321 993 835 953 474 993 b 217 989 301 993 258 993 b 111 939 183 985 124 976 b 110 929 111 936 111 933 b 72 406 82 740 72 597 b 86 57 72 293 74 169 b 135 4 89 29 106 8 z "},"s":{"ha":889,"x_min":0,"x_max":0,"o":"m 254 290 b 253 301 254 294 254 299 b 251 313 253 306 251 310 b 239 335 249 321 246 329 b 213 350 232 344 221 349 b 188 354 204 353 194 354 b 61 243 126 354 61 307 b 411 -19 61 58 249 -19 b 822 306 607 -19 822 86 b 626 568 822 461 710 531 b 482 617 579 588 531 601 b 319 692 435 629 356 656 b 310 715 313 701 310 710 b 322 732 310 718 311 724 b 449 763 347 753 418 763 b 586 735 488 763 554 756 b 608 710 596 728 603 718 b 626 675 615 699 621 686 b 703 625 640 649 660 625 b 818 753 750 625 818 668 b 794 831 818 783 807 810 b 442 989 715 958 551 989 b 90 715 281 989 90 897 b 357 422 90 539 232 467 b 533 364 421 399 485 382 b 603 307 554 356 603 333 b 403 201 603 228 463 201 b 263 257 357 201 289 214 b 254 290 257 268 256 279 z "},"t":{"ha":747,"x_min":0,"x_max":0,"o":"m 263 761 b 264 406 261 643 264 525 b 260 175 264 329 263 251 b 254 63 258 139 254 99 b 308 11 254 31 281 17 b 367 3 332 4 357 3 b 461 32 394 3 444 7 b 472 64 467 39 472 49 b 482 758 472 294 478 526 b 631 763 532 758 582 758 b 671 772 647 764 661 767 b 711 876 700 793 711 840 b 640 989 711 931 692 989 b 461 985 581 989 521 985 b 103 989 342 985 222 989 b 35 872 51 989 35 921 b 103 763 35 826 57 763 b 263 761 157 763 210 761 z "},"u":{"ha":1075,"x_min":0,"x_max":0,"o":"m 357 911 b 236 989 357 964 296 989 b 126 949 190 989 144 975 b 82 535 103 915 82 593 b 529 -26 82 256 204 -26 b 978 357 765 -26 918 144 b 1010 682 1007 460 1010 576 b 968 961 1010 740 1007 919 b 900 990 951 981 926 990 b 746 894 843 990 746 953 b 747 883 746 890 747 888 b 771 635 758 800 771 719 b 517 201 771 453 725 201 b 329 593 340 201 329 444 b 357 894 329 694 339 794 z "},"ù":{"ha":1075,"x_min":0,"x_max":0,"o":"m 357 911 b 236 989 357 964 296 989 b 126 949 190 989 144 975 b 82 535 103 915 82 593 b 529 -26 82 256 204 -26 b 978 357 765 -26 918 144 b 1010 682 1007 460 1010 576 b 968 961 1010 740 1007 919 b 900 990 951 981 926 990 b 746 894 843 990 746 953 b 747 883 746 890 747 888 b 771 635 758 800 771 719 b 517 201 771 453 725 201 b 329 593 340 201 329 444 b 357 894 329 694 339 794 z "},"ú":{"ha":1075,"x_min":0,"x_max":0,"o":"m 357 911 b 236 989 357 964 296 989 b 126 949 190 989 144 975 b 82 535 103 915 82 593 b 529 -26 82 256 204 -26 b 978 357 765 -26 918 144 b 1010 682 1007 460 1010 576 b 968 961 1010 740 1007 919 b 900 990 951 981 926 990 b 746 894 843 990 746 953 b 747 883 746 890 747 888 b 771 635 758 800 771 719 b 517 201 771 453 725 201 b 329 593 340 201 329 444 b 357 894 329 694 339 794 z "},"û":{"ha":1075,"x_min":0,"x_max":0,"o":"m 357 911 b 236 989 357 964 296 989 b 126 949 190 989 144 975 b 82 535 103 915 82 593 b 529 -26 82 256 204 -26 b 978 357 765 -26 918 144 b 1010 682 1007 460 1010 576 b 968 961 1010 740 1007 919 b 900 990 951 981 926 990 b 746 894 843 990 746 953 b 747 883 746 890 747 888 b 771 635 758 800 771 719 b 517 201 771 453 725 201 b 329 593 340 201 329 444 b 357 894 329 694 339 794 z "},"ü":{"ha":1075,"x_min":0,"x_max":0,"o":"m 357 911 b 236 989 357 964 296 989 b 126 949 190 989 144 975 b 82 535 103 915 82 593 b 529 -26 82 256 204 -26 b 978 357 765 -26 918 144 b 1010 682 1007 460 1010 576 b 968 961 1010 740 1007 919 b 900 990 951 981 926 990 b 746 894 843 990 746 953 b 747 883 746 890 747 888 b 771 635 758 800 771 719 b 517 201 771 453 725 201 b 329 593 340 201 329 444 b 357 894 329 694 339 794 z "},"v":{"ha":974,"x_min":0,"x_max":0,"o":"m 464 321 b 389 510 436 381 411 444 b 317 733 363 583 340 660 b 246 949 296 806 272 878 b 174 989 231 982 193 989 b 99 969 160 989 126 983 b 61 944 85 964 71 956 b 40 896 50 933 40 917 b 43 879 40 889 42 883 b 385 44 99 661 236 188 b 486 1 415 17 450 1 b 579 46 521 1 551 14 b 890 739 696 182 831 550 b 915 818 896 756 907 786 b 933 904 925 849 933 883 b 910 950 933 926 921 942 b 786 986 879 971 822 986 b 715 963 765 986 738 983 b 700 935 707 956 703 947 b 464 321 643 713 561 515 z "},"w":{"ha":1261,"x_min":0,"x_max":0,"o":"m 410 311 b 304 717 363 439 332 576 b 275 864 294 767 285 815 b 263 929 271 886 268 910 b 174 986 253 972 214 986 b 65 949 142 986 90 971 b 47 903 57 939 47 924 b 49 894 47 900 47 897 l 49 889 b 182 299 88 689 122 489 b 408 6 217 188 293 6 b 494 44 444 6 467 22 b 618 236 556 96 588 158 b 640 185 625 219 632 201 b 813 11 669 110 721 11 b 1024 192 899 11 981 101 b 1108 425 1058 265 1086 343 b 1214 882 1149 574 1181 729 b 1215 899 1215 888 1215 894 b 1088 982 1215 960 1138 982 b 1039 972 1074 982 1056 981 b 997 924 1022 965 1004 951 b 969 797 986 882 978 839 b 914 536 951 711 936 622 b 833 301 892 454 867 375 b 788 419 814 338 800 378 b 750 572 772 468 761 521 b 729 663 744 601 739 633 b 703 706 724 682 714 694 b 615 735 678 728 642 735 b 517 675 569 735 536 719 b 483 575 504 643 493 610 b 458 475 475 542 467 508 b 410 311 446 417 432 361 z "},"x":{"ha":953,"x_min":0,"x_max":0,"o":"m 453 303 b 632 94 508 229 568 157 b 675 51 643 85 658 68 b 721 13 692 38 708 21 b 749 3 731 6 739 3 b 876 139 789 3 876 68 b 871 168 876 150 874 160 b 860 186 867 175 864 182 b 854 192 858 188 856 190 b 847 197 853 193 850 194 b 593 482 754 276 672 376 b 789 706 656 560 722 633 b 893 811 824 742 858 774 b 908 849 901 818 908 829 b 771 986 908 922 810 986 b 742 972 757 986 751 982 b 460 669 643 881 550 776 b 351 828 433 707 392 768 b 226 978 304 893 256 957 b 189 989 214 988 200 989 b 54 863 154 989 54 936 b 61 835 54 851 57 842 b 69 819 63 828 67 824 b 158 713 100 783 129 750 b 317 489 213 640 264 564 b 154 274 261 418 208 343 b 65 168 125 236 94 204 b 50 124 60 158 50 143 b 89 43 50 90 69 63 b 151 6 110 25 135 11 b 188 -1 161 1 175 -1 b 233 21 206 -1 218 6 b 350 164 269 58 311 111 b 453 303 385 211 421 261 z "},"y":{"ha":896,"x_min":0,"x_max":0,"o":"m 307 372 b 322 67 304 274 307 165 b 435 0 331 14 390 0 b 492 8 446 0 469 1 b 525 24 503 11 515 15 b 543 63 533 32 543 43 b 536 139 543 88 539 114 b 525 318 531 199 525 258 b 526 375 525 336 525 356 b 854 853 683 443 785 674 b 858 875 857 860 858 867 b 721 986 858 940 781 986 b 657 950 700 986 672 981 b 553 721 633 900 596 804 b 417 574 507 636 460 574 b 321 710 383 574 351 628 b 258 921 292 788 271 876 b 164 983 243 974 190 983 b 42 893 110 983 42 956 b 43 876 42 888 42 882 b 307 372 85 692 154 450 z "},"ý":{"ha":896,"x_min":0,"x_max":0,"o":"m 307 372 b 322 67 304 274 307 165 b 435 0 331 14 390 0 b 492 8 446 0 469 1 b 525 24 503 11 515 15 b 543 63 533 32 543 43 b 536 139 543 88 539 114 b 525 318 531 199 525 258 b 526 375 525 336 525 356 b 854 853 683 443 785 674 b 858 875 857 860 858 867 b 721 986 858 940 781 986 b 657 950 700 986 672 981 b 553 721 633 900 596 804 b 417 574 507 636 460 574 b 321 710 383 574 351 628 b 258 921 292 788 271 876 b 164 983 243 974 190 983 b 42 893 110 983 42 956 b 43 876 42 888 42 882 b 307 372 85 692 154 450 z "},"ÿ":{"ha":896,"x_min":0,"x_max":0,"o":"m 307 372 b 322 67 304 274 307 165 b 435 0 331 14 390 0 b 492 8 446 0 469 1 b 525 24 503 11 515 15 b 543 63 533 32 543 43 b 536 139 543 88 539 114 b 525 318 531 199 525 258 b 526 375 525 336 525 356 b 854 853 683 443 785 674 b 858 875 857 860 858 867 b 721 986 858 940 781 986 b 657 950 700 986 672 981 b 553 721 633 900 596 804 b 417 574 507 636 460 574 b 321 710 383 574 351 628 b 258 921 292 788 271 876 b 164 983 243 974 190 983 b 42 893 110 983 42 956 b 43 876 42 888 42 882 b 307 372 85 692 154 450 z "},"z":{"ha":833,"x_min":0,"x_max":0,"o":"m 349 226 b 438 335 376 263 407 299 b 649 593 507 421 578 506 b 681 635 657 607 669 621 b 775 831 719 686 775 763 b 579 981 775 946 674 975 b 457 985 538 985 493 985 b 207 979 374 985 290 979 b 186 981 199 979 192 981 b 122 940 153 981 138 974 b 110 868 113 917 110 892 b 168 754 110 828 121 758 l 204 754 b 456 761 288 754 372 761 b 497 760 469 761 483 761 b 279 494 426 669 354 582 b 146 326 257 467 197 397 b 44 131 96 258 44 179 b 183 3 44 46 108 7 b 443 1 268 -1 356 1 b 700 0 528 1 614 0 b 772 128 756 0 772 78 b 674 229 772 207 746 229 b 349 226 565 229 456 226 z "},"{":{"ha":700,"x_min":0,"x_max":0,"o":"m 439 -1 b 436 56 436 17 436 36 b 438 171 436 93 438 132 b 406 371 438 236 432 308 b 447 542 435 422 443 482 b 454 656 449 565 451 611 b 465 746 458 692 463 725 b 494 749 475 747 485 749 b 522 743 503 749 513 746 b 539 738 528 742 533 739 b 556 736 544 736 551 736 b 647 844 600 736 647 772 b 515 972 647 943 563 972 l 458 972 b 401 964 439 971 419 969 b 235 635 261 929 243 789 b 231 557 233 610 233 582 b 221 497 229 535 226 517 b 129 482 194 499 160 496 b 61 379 94 469 61 439 b 213 258 61 290 138 263 b 217 221 214 249 217 235 b 218 164 218 200 218 179 b 218 17 218 115 217 65 b 421 -229 225 -153 300 -229 b 599 -103 500 -229 599 -199 b 492 13 599 -22 535 13 b 454 4 479 13 465 8 b 442 -1 450 3 446 0 z "},"}":{"ha":699,"x_min":0,"x_max":0,"o":"m 479 497 b 469 554 474 515 471 533 b 465 631 467 579 467 606 b 242 972 457 797 439 957 l 185 972 b 54 843 136 972 54 947 b 144 736 54 772 100 736 b 161 739 150 736 156 738 b 204 749 172 743 193 749 b 233 746 214 749 224 747 b 246 638 238 722 242 682 b 257 500 250 585 253 529 b 293 371 261 454 272 410 b 261 167 267 307 261 235 b 264 54 261 129 264 92 b 260 -1 264 36 263 17 l 258 -1 b 246 4 256 0 251 1 b 208 13 236 8 222 13 b 100 -103 167 13 100 -22 b 279 -229 100 -199 200 -229 b 482 63 454 -229 482 -76 b 481 172 482 90 479 133 b 488 258 481 206 482 236 b 574 278 511 260 546 264 b 639 379 606 292 639 322 b 489 497 639 465 563 497 z "},"~":{"ha":917,"x_min":0,"x_max":0,"o":"m 247 313 b 307 333 264 329 283 333 b 386 310 331 333 357 324 b 472 272 417 296 447 281 b 588 251 510 258 549 251 b 742 296 640 251 693 265 b 842 376 757 306 829 357 b 867 449 853 392 867 421 b 863 474 867 458 865 467 b 754 561 846 539 800 561 b 704 546 736 561 719 556 b 664 517 690 538 678 526 b 586 476 640 494 617 476 b 551 483 574 476 563 479 b 515 497 539 488 528 493 b 414 539 478 513 447 526 b 306 560 381 551 347 560 b 53 381 206 560 53 500 b 163 269 53 300 122 269 b 231 293 185 269 211 276 b 240 303 235 297 238 300 b 247 313 243 306 244 308 z "}," ":{"ha":347,"x_min":0,"x_max":0,"o":""},"¢":{"ha":882,"x_min":0,"x_max":0,"o":"m 360 75 b 361 54 360 68 360 61 b 369 18 363 42 365 31 b 469 -54 390 -35 433 -54 b 581 58 513 -54 581 -25 b 579 83 581 67 579 75 b 760 206 646 104 710 142 b 769 218 763 210 767 214 b 796 279 786 235 796 256 b 667 400 796 361 706 400 b 596 358 633 400 617 382 b 579 338 590 351 585 344 b 564 324 574 332 569 328 b 457 289 536 300 493 289 b 296 435 383 289 296 332 b 497 653 296 560 410 653 b 610 590 544 653 576 633 b 681 561 631 565 660 561 b 754 579 701 561 731 567 b 801 664 778 594 801 621 b 738 781 801 714 771 747 b 554 874 682 832 619 863 b 510 1008 556 922 551 979 b 449 1032 492 1021 469 1032 b 333 921 386 1032 333 985 b 335 879 333 908 335 893 b 333 839 335 865 335 853 b 78 431 204 775 78 639 b 360 75 78 221 231 106 z "},"£":{"ha":933,"x_min":0,"x_max":0,"o":"m 146 225 b 93 124 118 201 93 161 b 164 15 93 68 131 26 b 393 -10 239 -8 319 -10 b 682 -6 489 -10 586 -6 b 749 -6 706 -6 728 -6 b 856 107 792 -6 856 28 b 746 222 856 176 810 211 b 668 224 718 225 690 224 b 429 217 588 224 508 217 b 467 340 449 253 460 296 b 592 346 508 342 550 346 b 619 347 600 346 610 346 b 649 354 629 347 639 350 b 719 464 682 369 719 397 b 713 503 719 476 718 490 b 586 574 682 571 631 574 b 461 568 546 574 504 569 b 576 754 465 668 500 754 b 635 721 615 754 625 738 b 644 706 638 717 642 711 b 657 690 649 700 651 694 b 701 674 668 681 682 674 b 843 789 758 674 843 726 b 614 978 843 889 700 969 b 581 979 603 978 592 979 b 243 574 392 979 257 833 b 183 575 224 574 203 575 b 74 461 143 575 74 543 b 76 439 74 454 74 447 b 214 347 97 364 147 353 l 244 347 b 172 251 233 310 204 282 b 146 225 163 242 154 235 z "},"¥":{"ha":950,"x_min":0,"x_max":0,"o":"m 358 47 b 407 10 368 26 389 15 b 413 8 408 10 411 8 b 468 0 433 3 456 0 b 525 8 479 0 504 1 b 574 63 551 15 574 33 b 567 139 574 86 569 113 b 656 139 599 138 636 138 b 654 283 725 149 708 272 b 561 288 631 288 600 292 l 561 357 b 725 421 596 365 725 371 b 701 493 725 447 717 476 b 886 853 779 594 836 726 b 890 875 889 860 890 867 b 751 986 890 940 811 986 b 689 949 733 986 704 981 b 583 721 665 901 629 806 b 449 574 539 636 490 574 b 353 711 415 574 381 629 b 289 921 324 789 301 878 b 196 983 274 974 222 983 b 72 893 143 983 72 956 b 74 876 72 888 74 882 b 218 485 101 751 149 589 b 183 401 196 468 183 438 b 349 357 183 343 311 358 l 349 288 b 263 278 314 288 285 283 b 275 126 171 251 214 126 b 347 129 299 126 324 126 b 350 99 347 119 349 108 b 358 47 350 88 354 58 z "},"«":{"ha":1033,"x_min":0,"x_max":0,"o":"m 322 400 b 458 528 368 442 413 485 b 482 547 465 535 474 540 b 508 574 490 556 500 564 b 535 640 519 588 535 611 b 428 760 535 719 472 760 b 368 743 411 760 386 756 b 318 701 353 731 335 718 b 110 507 251 636 174 575 b 64 400 86 482 64 447 b 196 211 64 317 136 258 b 315 119 239 179 283 146 b 339 97 322 114 331 106 b 367 76 347 90 357 82 b 415 63 381 69 399 63 b 529 181 458 63 529 93 b 499 253 529 210 514 238 b 401 338 468 283 436 313 b 322 400 375 360 349 381 z m 763 90 b 840 56 781 72 814 56 b 951 172 883 56 951 86 b 924 246 951 199 939 231 b 828 331 897 275 861 303 b 747 393 800 351 771 374 b 882 521 792 435 838 476 b 907 539 889 526 897 532 b 958 633 935 563 958 596 b 853 751 958 714 897 751 b 742 694 810 751 774 725 l 533 500 b 488 394 511 479 488 436 b 560 258 488 331 515 299 b 739 111 618 206 679 163 b 763 90 746 104 753 96 z "},"­":{"ha":0,"x_min":0,"x_max":0,"o":""},"±":{"ha":869,"x_min":0,"x_max":0,"o":"m 540 561 l 540 575 b 543 604 540 585 542 594 b 544 607 543 604 543 606 b 553 621 546 611 550 615 b 564 674 557 633 564 651 b 451 783 564 757 490 783 b 322 601 356 783 328 678 b 319 549 321 585 321 568 b 156 535 264 544 210 540 b 63 421 115 529 63 490 b 167 310 63 344 131 310 b 318 322 218 310 268 318 b 321 242 319 299 319 271 b 353 146 325 208 332 168 b 433 110 374 125 407 110 b 543 221 469 110 543 144 b 539 333 543 258 540 296 b 665 331 579 335 625 338 b 699 328 676 329 688 328 b 806 439 740 328 806 360 b 632 561 806 536 711 561 z m 221 -164 b 336 -154 258 -164 297 -156 b 682 -140 453 -149 567 -147 b 751 -114 706 -139 732 -132 b 793 -28 772 -97 793 -65 b 688 88 793 50 731 88 l 682 88 b 207 61 524 81 364 78 b 114 -54 167 56 114 18 b 221 -164 114 -129 182 -164 z "},"¶":{"ha":1058,"x_min":0,"x_max":0,"o":"m 454 190 b 454 -14 454 122 454 54 b 546 -87 454 -68 499 -87 b 615 -74 558 -87 588 -83 b 672 -7 646 -60 672 -44 b 665 592 672 192 665 392 b 667 722 665 635 665 678 b 669 808 667 751 669 779 b 553 988 669 907 633 988 b 532 986 546 988 539 986 b 268 894 447 974 349 950 b 72 575 171 824 72 703 b 75 539 72 564 74 551 b 454 190 110 315 308 208 z m 749 -56 b 850 -86 772 -76 819 -86 b 954 -8 901 -86 950 -65 l 954 6 b 939 763 954 257 939 510 b 940 853 939 792 940 821 b 922 922 940 874 938 903 b 813 976 897 960 844 976 b 721 875 744 976 721 936 b 721 814 719 857 721 836 b 733 94 721 574 733 333 b 731 -12 733 58 731 22 b 749 -56 731 -33 740 -47 z "},"·":{"ha":328,"x_min":0,"x_max":0,"o":"m 46 439 b 167 321 46 347 124 321 b 281 428 226 321 281 365 b 153 553 281 525 199 553 b 46 439 113 553 46 518 z "},"»":{"ha":1033,"x_min":0,"x_max":0,"o":"m 286 393 b 201 329 263 376 233 351 b 107 242 163 297 124 264 b 81 168 94 225 81 199 b 190 54 81 88 151 54 b 258 83 217 54 239 64 b 449 235 321 138 386 185 b 507 292 467 251 489 271 b 544 394 528 317 544 353 b 499 500 544 440 521 476 b 357 631 454 546 404 588 b 299 688 340 647 319 669 b 188 751 272 714 228 751 b 74 638 147 751 74 722 b 117 549 74 596 94 567 b 286 393 175 503 231 444 z m 710 400 b 625 333 688 382 656 358 b 531 247 585 303 544 269 b 504 172 517 229 504 203 b 615 63 504 93 579 63 b 683 89 640 63 663 71 b 871 243 746 142 808 192 b 931 299 892 260 911 278 b 968 399 949 322 968 357 b 924 507 968 444 944 482 b 781 638 878 554 828 593 b 721 696 767 651 744 674 b 610 760 693 722 651 760 b 497 646 568 760 497 729 b 540 557 497 604 518 574 b 710 400 599 510 653 454 z "},"×":{"ha":838,"x_min":0,"x_max":0,"o":"m 261 421 b 138 297 222 379 179 333 b 125 288 133 293 129 290 b 111 275 121 285 115 281 b 85 203 100 258 85 232 b 197 88 85 119 156 88 b 275 122 224 88 254 103 b 417 261 324 165 369 211 b 599 107 458 218 557 121 b 633 100 610 103 622 100 b 743 214 674 100 743 132 b 701 303 743 254 725 283 b 571 421 656 338 614 379 b 619 471 585 433 601 453 b 676 525 644 496 667 519 l 681 525 b 689 528 683 526 686 526 b 764 635 724 536 764 576 b 649 753 764 721 689 753 b 582 732 625 753 603 746 b 492 658 551 714 521 686 b 417 579 465 632 442 606 b 333 665 396 600 364 633 b 239 746 297 700 258 736 b 185 760 221 754 206 760 b 72 643 144 760 72 725 b 114 557 72 604 93 574 b 140 542 122 551 132 547 b 207 479 157 531 181 507 b 261 421 226 458 246 438 z "},"÷":{"ha":871,"x_min":0,"x_max":0,"o":"m 429 56 b 522 97 456 56 499 63 b 549 167 533 113 549 138 b 443 282 549 243 485 282 b 324 171 381 282 324 236 b 429 56 324 90 386 56 z m 396 546 b 421 544 404 546 413 544 b 532 661 464 544 532 575 b 414 774 532 724 475 774 b 310 696 385 774 322 746 b 303 654 306 682 303 669 b 396 546 303 588 361 550 z m 174 510 b 165 511 171 511 168 511 b 57 396 124 511 57 476 b 175 279 57 306 132 279 l 183 279 b 463 293 276 283 369 293 b 615 294 493 293 554 292 b 818 415 701 296 818 300 b 711 529 818 494 751 529 b 675 526 699 529 688 528 b 407 519 586 518 496 521 b 189 507 335 517 260 507 l 186 507 b 181 508 183 507 182 508 b 174 510 178 508 175 510 z "},"ƒ":{"ha":568,"x_min":0,"x_max":0,"o":"m -40 -124 b 50 -212 -28 -179 13 -207 b 143 -219 81 -215 113 -219 b 368 153 338 -219 368 -62 b 363 515 368 274 363 394 b 431 533 383 517 408 522 b 482 626 457 549 482 576 b 375 742 482 707 418 742 b 390 804 378 764 383 785 b 417 801 399 803 407 801 b 526 914 457 801 526 833 b 365 1038 526 1004 442 1038 b 178 861 267 1038 211 988 b 151 724 165 817 157 771 b 44 610 107 719 44 694 b 47 589 44 603 44 596 b 144 500 61 529 106 504 b 149 140 144 381 149 261 b 140 7 149 96 149 51 b 60 13 113 8 86 13 b -43 -103 17 13 -43 -28 b -40 -124 -43 -110 -43 -117 z "},"–":{"ha":764,"x_min":0,"x_max":0,"o":"m 46 392 b 221 279 58 286 135 279 b 554 286 332 279 444 286 b 610 279 572 286 590 279 b 717 390 649 279 717 310 b 549 514 717 490 631 514 b 231 506 443 514 338 506 l 201 506 b 193 508 199 507 196 508 b 183 511 189 510 186 511 b 171 513 179 513 175 513 b 94 489 150 513 119 506 b 46 397 68 474 46 443 z "},"—":{"ha":1117,"x_min":0,"x_max":0,"o":"m 161 268 b 683 247 335 260 508 257 b 925 229 763 243 846 242 b 963 225 938 228 950 225 b 1068 335 1001 225 1068 261 b 908 460 1068 435 988 451 b 622 478 813 468 718 474 b 161 494 468 486 314 494 b 50 381 121 494 50 463 b 161 268 50 297 121 271 z "},"‘":{"ha":319,"x_min":0,"x_max":0,"o":"m 54 757 l 54 744 b 129 650 54 685 90 650 b 217 718 169 650 197 679 b 258 832 233 746 251 800 b 267 881 264 847 267 864 b 194 976 267 940 235 976 b 107 913 161 976 126 954 b 54 757 96 888 58 788 z "},"’":{"ha":319,"x_min":0,"x_max":0,"o":"m 54 757 l 54 744 b 129 650 54 685 90 650 b 217 718 169 650 197 679 b 258 832 233 746 251 800 b 267 881 264 847 267 864 b 194 976 267 940 235 976 b 107 913 161 976 126 954 b 54 757 96 888 58 788 z "},"“":{"ha":500,"x_min":0,"x_max":0,"o":"m 138 642 b 221 717 179 642 206 675 b 239 779 229 736 235 758 b 253 839 244 800 249 819 b 256 872 254 850 256 861 b 179 974 256 931 222 974 b 92 900 144 974 107 947 b 58 740 82 871 58 772 b 138 642 58 676 96 642 z m 324 626 b 408 701 367 626 393 661 b 426 764 417 719 422 743 b 440 824 432 785 436 806 b 443 858 442 835 443 846 b 367 958 443 915 410 958 b 279 886 333 958 294 929 b 246 724 269 858 246 757 b 324 626 246 663 283 626 z "},"”":{"ha":500,"x_min":0,"x_max":0,"o":"m 138 642 b 221 717 179 642 206 675 b 239 779 229 736 235 758 b 253 839 244 800 249 819 b 256 872 254 850 256 861 b 179 974 256 931 222 974 b 92 900 144 974 107 947 b 58 740 82 871 58 772 b 138 642 58 676 96 642 z m 324 626 b 408 701 367 626 393 661 b 426 764 417 719 422 743 b 440 824 432 785 436 806 b 443 858 442 835 443 846 b 367 958 443 915 410 958 b 279 886 333 958 294 929 b 246 724 269 858 246 757 b 324 626 246 663 283 626 z "},"•":{"ha":403,"x_min":0,"x_max":0,"o":"m 54 376 b 211 226 54 268 158 226 b 350 381 276 226 350 272 b 215 540 350 485 279 540 b 156 525 193 540 174 533 b 79 472 122 514 97 506 b 54 376 65 444 54 413 z "},"‹":{"ha":596,"x_min":0,"x_max":0,"o":"m 382 58 b 417 53 393 54 406 53 b 525 163 456 53 525 81 b 483 254 525 203 508 236 b 313 401 418 301 369 342 b 400 483 332 421 367 453 b 493 578 443 525 486 567 b 507 636 503 594 507 617 b 396 750 507 722 438 750 b 329 724 371 750 349 739 b 238 639 297 699 267 668 b 124 526 199 601 161 567 b 64 406 101 504 64 456 b 85 326 64 376 72 347 b 382 58 121 263 326 74 z "},"›":{"ha":576,"x_min":0,"x_max":0,"o":"m 132 268 b 111 199 118 247 111 224 b 217 88 111 124 178 88 b 290 114 239 88 268 93 b 511 442 363 179 511 335 b 335 669 511 551 419 617 b 286 707 318 681 301 693 b 232 744 269 721 253 736 b 197 751 221 750 208 751 b 68 629 132 751 68 696 b 154 518 68 563 118 525 b 163 517 157 518 161 518 b 167 515 165 517 165 517 b 182 506 172 513 176 508 b 199 492 188 500 193 496 b 278 433 225 474 253 456 b 226 371 261 411 246 390 b 158 297 204 344 179 322 b 142 279 156 293 149 286 b 132 268 138 275 135 271 z "},"⁄":{"ha":944,"x_min":0,"x_max":0,"o":"m 160 -60 b 242 -19 188 -60 218 -49 b 865 833 458 251 663 542 b 892 911 881 854 892 878 b 779 1021 892 994 819 1021 b 660 929 724 1021 688 971 b 625 876 649 911 638 893 b 467 646 572 800 521 721 b 75 128 340 468 206 300 b 49 53 63 110 49 86 b 160 -60 49 -29 118 -60 z "},"€":{"ha":1001,"x_min":0,"x_max":0,"o":"m 307 251 b 483 67 353 168 415 107 b 764 19 568 19 671 19 b 882 53 804 19 851 25 b 925 160 904 76 925 117 b 842 263 925 229 886 263 b 810 256 831 263 819 260 b 697 238 772 244 735 238 b 619 250 668 238 643 242 b 625 251 621 250 624 251 b 739 363 688 254 739 296 b 628 478 739 444 669 478 l 471 478 b 476 535 472 486 475 526 b 557 538 503 536 531 538 b 639 535 585 538 613 535 b 742 619 682 535 742 540 b 644 728 742 675 701 719 b 610 731 633 731 621 731 b 753 772 653 760 704 772 b 835 764 781 772 807 764 b 924 890 885 764 924 825 b 756 999 924 993 835 999 b 311 718 583 999 414 914 b 176 714 268 718 218 721 b 196 522 71 689 33 522 b 257 524 215 522 236 524 l 254 478 b 185 478 232 478 208 481 b 75 367 124 475 75 429 b 186 251 75 283 146 251 z "},"−":{"ha":740,"x_min":0,"x_max":0,"o":"m 574 540 l 529 540 b 221 524 426 540 324 533 b 174 519 206 521 189 519 b 153 521 167 519 160 521 b 46 406 111 521 46 482 b 165 292 46 313 125 292 b 354 307 228 292 290 303 b 574 314 426 313 500 314 b 693 428 640 314 693 357 b 574 540 693 503 639 535 z "}}}
